/* XPM */
static char * 376_xpm[] = {
"64 64 256 2",
"  	c #000000",
". 	c #0000FF",
"+ 	c #00FF00",
"@ 	c #FF0000",
"# 	c #00FFFF",
"$ 	c #FFFF00",
"% 	c #FF00FF",
"& 	c #FFFFFF",
"* 	c #7B7B7B",
"= 	c #7B7B7B",
"- 	c #7B7B7B",
"; 	c #7B7B7B",
"> 	c #7B7B7B",
", 	c #7B7B7B",
"' 	c #7B7B7B",
") 	c #7B7B7B",
"! 	c #7B7B7B",
"~ 	c #7B7B7B",
"{ 	c #7B7B7B",
"] 	c #7B7B7B",
"^ 	c #7B7B7B",
"/ 	c #7B7B7B",
"( 	c #7B7B7B",
"_ 	c #7B7B7B",
": 	c #7B7B7B",
"< 	c #7B7B7B",
"[ 	c #7B7B7B",
"} 	c #7B7B7B",
"| 	c #7B7B7B",
"1 	c #7B7B7B",
"2 	c #7B7B7B",
"3 	c #7B7B7B",
"4 	c #7B7B7B",
"5 	c #7B7B7B",
"6 	c #7B7B7B",
"7 	c #7B7B7B",
"8 	c #7B7B7B",
"9 	c #7B7B7B",
"0 	c #7B7B7B",
"a 	c #7B7B7B",
"b 	c #7B7B7B",
"c 	c #7B7B7B",
"d 	c #7B7B7B",
"e 	c #7B7B7B",
"f 	c #7B7B7B",
"g 	c #7B7B7B",
"h 	c #7B7B7B",
"i 	c #7B7B7B",
"j 	c #7B7B7B",
"k 	c #7B7B7B",
"l 	c #7B7B7B",
"m 	c #7B7B7B",
"n 	c #7B7B7B",
"o 	c #7B7B7B",
"p 	c #7B7B7B",
"q 	c #7B7B7B",
"r 	c #7B7B7B",
"s 	c #7B7B7B",
"t 	c #7B7B7B",
"u 	c #7B7B7B",
"v 	c #7B7B7B",
"w 	c #7B7B7B",
"x 	c #7B7B7B",
"y 	c #7B7B7B",
"z 	c #7B7B7B",
"A 	c #7B7B7B",
"B 	c #7B7B7B",
"C 	c #7B7B7B",
"D 	c #7B7B7B",
"E 	c #7B7B7B",
"F 	c #7B7B7B",
"G 	c #7B7B7B",
"H 	c #7B7B7B",
"I 	c #7B7B7B",
"J 	c #7B7B7B",
"K 	c #7B7B7B",
"L 	c #7B7B7B",
"M 	c #7B7B7B",
"N 	c #7B7B7B",
"O 	c #7B7B7B",
"P 	c #7B7B7B",
"Q 	c #7B7B7B",
"R 	c #7B7B7B",
"S 	c #7B7B7B",
"T 	c #7B7B7B",
"U 	c #7B7B7B",
"V 	c #7B7B7B",
"W 	c #7B7B7B",
"X 	c #7B7B7B",
"Y 	c #7B7B7B",
"Z 	c #7B7B7B",
"` 	c #7B7B7B",
" .	c #7B7B7B",
"..	c #7B7B7B",
"+.	c #7B7B7B",
"@.	c #7B7B7B",
"#.	c #7B7B7B",
"$.	c #7B7B7B",
"%.	c #7B7B7B",
"&.	c #7B7B7B",
"*.	c #7B7B7B",
"=.	c #7B7B7B",
"-.	c #7B7B7B",
";.	c #7B7B7B",
">.	c #7B7B7B",
",.	c #7B7B7B",
"'.	c #7B7B7B",
").	c #7B7B7B",
"!.	c #7B7B7B",
"~.	c #7B7B7B",
"{.	c #7B7B7B",
"].	c #7B7B7B",
"^.	c #7B7B7B",
"/.	c #7B7B7B",
"(.	c #7B7B7B",
"_.	c #7B7B7B",
":.	c #7B7B7B",
"<.	c #7B7B7B",
"[.	c #7B7B7B",
"}.	c #7B7B7B",
"|.	c #7B7B7B",
"1.	c #7B7B7B",
"2.	c #7B7B7B",
"3.	c #7B7B7B",
"4.	c #7B7B7B",
"5.	c #7B7B7B",
"6.	c #7B7B7B",
"7.	c #7B7B7B",
"8.	c #7B7B7B",
"9.	c #7B7B7B",
"0.	c #7B7B7B",
"a.	c #7B7B7B",
"b.	c #7B7B7B",
"c.	c #7B7B7B",
"d.	c #7B7B7B",
"e.	c #7B7B7B",
"f.	c #7B7B7B",
"g.	c #7B7B7B",
"h.	c #7B7B7B",
"i.	c #7B7B7B",
"j.	c #7B7B7B",
"k.	c #7B7B7B",
"l.	c #7B7B7B",
"m.	c #7B7B7B",
"n.	c #7B7B7B",
"o.	c #7B7B7B",
"p.	c #7B7B7B",
"q.	c #7B7B7B",
"r.	c #7B7B7B",
"s.	c #7B7B7B",
"t.	c #7B7B7B",
"u.	c #7B7B7B",
"v.	c #7B7B7B",
"w.	c #7B7B7B",
"x.	c #7B7B7B",
"y.	c #7B7B7B",
"z.	c #7B7B7B",
"A.	c #7B7B7B",
"B.	c #7B7B7B",
"C.	c #7B7B7B",
"D.	c #7B7B7B",
"E.	c #7B7B7B",
"F.	c #7B7B7B",
"G.	c #7B7B7B",
"H.	c #7B7B7B",
"I.	c #7B7B7B",
"J.	c #7B7B7B",
"K.	c #7B7B7B",
"L.	c #7B7B7B",
"M.	c #7B7B7B",
"N.	c #7B7B7B",
"O.	c #7B7B7B",
"P.	c #7B7B7B",
"Q.	c #7B7B7B",
"R.	c #7B7B7B",
"S.	c #7B7B7B",
"T.	c #7B7B7B",
"U.	c #7B7B7B",
"V.	c #7B7B7B",
"W.	c #7B7B7B",
"X.	c #7B7B7B",
"Y.	c #7B7B7B",
"Z.	c #7B7B7B",
"`.	c #7B7B7B",
" +	c #7B7B7B",
".+	c #7B7B7B",
"++	c #7B7B7B",
"@+	c #7B7B7B",
"#+	c #7B7B7B",
"$+	c #7B7B7B",
"%+	c #7B7B7B",
"&+	c #7B7B7B",
"*+	c #7B7B7B",
"=+	c #7B7B7B",
"-+	c #7B7B7B",
";+	c #7B7B7B",
">+	c #7B7B7B",
",+	c #7B7B7B",
"'+	c #7B7B7B",
")+	c #7B7B7B",
"!+	c #7B7B7B",
"~+	c #7B7B7B",
"{+	c #7B7B7B",
"]+	c #7B7B7B",
"^+	c #7B7B7B",
"/+	c #7B7B7B",
"(+	c #7B7B7B",
"_+	c #7B7B7B",
":+	c #7B7B7B",
"<+	c #7B7B7B",
"[+	c #7B7B7B",
"}+	c #7B7B7B",
"|+	c #7B7B7B",
"1+	c #7B7B7B",
"2+	c #7B7B7B",
"3+	c #7B7B7B",
"4+	c #7B7B7B",
"5+	c #7B7B7B",
"6+	c #7B7B7B",
"7+	c #7B7B7B",
"8+	c #7B7B7B",
"9+	c #7B7B7B",
"0+	c #7B7B7B",
"a+	c #7B7B7B",
"b+	c #7B7B7B",
"c+	c #7B7B7B",
"d+	c #7B7B7B",
"e+	c #7B7B7B",
"f+	c #7B7B7B",
"g+	c #7B7B7B",
"h+	c #7B7B7B",
"i+	c #7B7B7B",
"j+	c #7B7B7B",
"k+	c #DE7B7B",
"l+	c #EE9494",
"m+	c #E68B8B",
"n+	c #FFB4B4",
"o+	c #F6A4A4",
"p+	c #410000",
"q+	c #8B2020",
"r+	c #BD5252",
"s+	c #6A0808",
"t+	c #9C3131",
"u+	c #7B1818",
"v+	c #620808",
"w+	c #A43939",
"x+	c #CD6A6A",
"y+	c #8B2929",
"z+	c #831818",
"A+	c #731010",
"B+	c #520000",
"C+	c #AC4141",
"D+	c #4A0000",
"E+	c #D57373",
"F+	c #BD5A5A",
"G+	c #DE8383",
"r+C+C+t+y+t+y+q+y+t+y+u+A+s+v+v+v+v+s+s+A+A+z+y+y+y+y+t+y+t+r+r+r+F+F+C+q+z+q+y+y+y+q+y+y+y+w+w+w+t+y+t+t+w+y+y+w+y+t+t+y+q+t+t+",
"w+t+w+r+w+y+q+u+A+v+v+v+s+A+A+u+q+q+q+u+u+t+C+r+t+u+u+q+z+q+t+C+w+w+t+u+u+q+q+A+v+s+u+y+y+q+q+q+q+y+y+y+t+q+u+y+q+u+q+q+w+r+w+C+",
"t+w+r+t+A+s+v+v+v+A+q+y+y+y+t+q+u+u+t+r+r+C+x+x+C+u+u+q+q+u+u+u+A+v+v+B+v+A+A+s+A+y+w+t+t+t+w+q+u+q+C+C+C+F+x+F+C+z+q+w+C+t+w+y+",
"u+A+A+s+A+A+A+y+w+w+C+C+C+w+y+z+A+u+y+C+w+t+y+u+A+s+A+A+A+v+B+B+B+v+u+y+q+A+u+w+C+C+w+C+F+F+t+q+u+t+r+C+w+C+x+F+y+z+u+q+q+A+A+s+",
"v+A+u+q+u+y+r+C+t+w+w+C+r+C+y+q+w+t+z+s+B+B+v+v+v+v+B+B+D+D+B+v+u+t+C+t+y+q+u+t+F+r+C+t+w+y+u+q+q+u+u+u+q+y+w+y+q+q+q+u+s+v+v+v+",
"u+z+q+y+u+u+w+C+C+t+t+y+u+s+v+A+A+v+v+A+u+A+s+s+s+v+B+D+B+q+t+u+u+C+r+C+w+y+u+y+t+q+A+A+s+A+A+A+A+A+s+A+A+A+u+u+u+A+A+v+v+B+B+u+",
"C+y+q+z+q+w+w+t+t+z+s+s+A+A+A+u+z+u+z+y+y+u+s+s+v+B+v+u+y+y+A+q+C+r+F+x+C+u+q+C+y+s+v+v+v+A+u+u+z+q+y+y+A+A+u+u+A+A+A+s+B+B+A+q+",
"C+F+t+A+q+t+z+A+v+v+u+q+t+F+x+F+r+t+u+u+u+s+B+B+v+u+y+t+C+z+q+r+r+r+x+w+v+u+u+v+A+q+y+y+y+y+q+q+t+C+r+r+y+u+t+C+C+t+q+y+A+B+v+u+",
"q+t+A+B+u+s+B+s+A+u+t+C+r+F+x+r+C+t+u+s+B+B+s+q+u+A+y+r+w+u+z+t+r+F+y+B+B+A+u+y+w+C+C+w+r+r+C+C+r+F+F+r+w+w+r+r+C+y+y+w+q+A+y+y+",
"y+q+s+v+v+s+y+y+q+y+w+t+t+C+C+y+q+z+s+v+v+y+F+C+u+y+G+m+x+t+z+u+u+A+s+v+A+t+C+F+E+r+q+u+y+C+F+r+C+r+C+w+y+y+C+F+r+w+t+q+t+C+t+q+",
"z+z+u+v+v+y+t+y+C+x+x+C+F+m+G+w+A+v+A+t+r+x+r+q+y+x+F+r+F+t+A+A+A+s+u+z+t+r+F+x+x+F+w+u+q+C+w+u+u+y+y+z+u+q+t+t+t+w+y+u+q+C+t+y+",
"A+A+A+A+v+q+q+u+t+F+F+F+E+E+C+A+s+q+C+w+r+C+q+q+w+r+F+F+y+s+s+s+u+w+C+C+r+F+F+r+F+F+C+u+v+A+v+B+v+v+v+v+v+A+u+u+s+A+t+F+C+t+y+y+",
"u+u+y+z+v+w+w+u+u+t+w+w+F+x+w+q+u+y+r+F+F+C+q+u+t+r+t+u+s+A+u+u+y+r+F+C+r+x+F+C+y+u+s+v+v+A+A+q+t+t+q+A+v+v+v+s+v+u+y+C+r+r+r+w+",
"z+z+q+z+s+q+y+q+C+C+u+t+k+x+t+y+r+x+x+F+x+E+r+u+s+u+u+A+A+y+F+x+w+q+y+C+F+C+y+A+v+s+q+t+q+s+A+w+C+y+y+q+u+q+s+B+v+u+q+t+r+F+C+y+",
"z+u+A+s+v+v+u+u+q+z+A+y+C+y+u+u+w+C+t+r+w+y+A+A+A+u+y+t+y+t+F+x+t+v+s+u+u+B+v+u+y+y+t+r+C+z+u+A+v+A+q+C+F+t+u+B+D+v+A+y+C+r+r+w+",
"t+y+z+A+u+A+v+v+A+A+v+v+u+q+q+A+v+A+q+u+v+v+u+y+t+C+r+F+r+t+t+C+t+A+v+v+A+u+q+u+y+C+C+u+A+s+v+u+t+z+y+t+C+w+v+D+B+A+z+q+w+r+F+r+",
"t+w+y+u+t+q+z+y+t+y+A+u+u+u+u+z+u+A+z+y+w+C+t+y+q+t+F+x+F+C+t+u+v+A+t+t+u+q+y+q+u+u+u+u+u+y+t+r+t+u+z+u+y+u+B+B+A+q+y+q+t+C+t+y+",
"q+w+y+u+q+u+C+E+x+r+t+C+C+F+E+F+t+y+r+x+x+F+C+t+t+C+C+w+u+v+B+A+w+C+C+y+A+u+q+y+C+F+r+y+u+w+x+x+C+t+q+u+s+B+v+A+y+y+q+y+t+w+t+q+",
"z+q+C+x+C+y+F+k+F+t+y+C+x+G+G+E+C+y+C+r+r+C+t+u+u+A+v+B+v+v+v+u+t+z+A+s+A+z+t+C+r+y+u+q+w+C+w+t+y+u+v+v+s+u+y+q+q+q+y+C+r+x+F+w+",
"y+t+C+C+t+r+x+E+x+r+C+C+r+F+F+x+C+u+q+r+r+t+q+u+v+B+v+u+t+q+u+A+u+A+A+u+y+w+C+y+A+s+v+s+A+A+A+s+s+A+z+y+w+t+q+q+y+q+C+F+F+F+C+t+",
"y+u+y+t+y+t+w+t+t+w+t+y+y+t+t+q+v+v+u+u+u+s+u+y+C+C+q+A+u+A+v+s+A+u+y+C+r+F+x+r+q+A+A+s+B+B+s+q+u+A+y+r+w+u+z+y+w+q+y+t+y+y+y+q+",
"y+y+q+z+u+z+u+u+A+s+A+A+s+A+A+A+A+s+z+y+y+u+u+q+C+t+z+u+v+s+y+y+q+y+w+t+t+C+C+y+z+z+s+v+v+y+F+C+u+y+G+m+x+t+z+u+u+s+s+v+A+y+w+C+",
"C+w+y+y+y+y+y+q+q+q+q+q+y+y+y+z+q+q+u+t+y+t+q+q+w+y+A+B+v+y+t+y+C+x+x+C+F+m+G+w+A+v+B+A+r+x+r+q+y+x+F+r+F+t+A+s+v+s+u+z+t+r+F+r+",
"u+u+y+y+y+y+t+t+t+t+t+t+t+t+y+q+y+z+u+q+w+C+q+t+t+u+B+B+s+z+z+u+t+F+F+F+x+E+C+u+B+B+s+q+r+C+q+u+t+t+C+C+y+A+s+s+u+w+C+C+r+F+r+C+",
"q+u+y+t+y+y+w+t+t+w+t+y+y+y+y+u+v+s+q+t+y+y+y+w+C+C+v+B+A+u+A+u+w+C+F+w+u+q+u+v+B+s+A+y+t+y+C+r+x+C+u+q+u+v+s+y+w+q+y+t+y+q+y+q+",
"y+y+y+y+y+q+u+u+A+s+A+A+A+u+y+w+q+q+q+t+t+y+w+C+F+y+v+B+A+v+u+F+x+E+m+y+v+z+u+s+v+u+A+s+v+u+C+C+C+x+C+u+A+s+u+u+u+A+s+v+A+y+w+C+",
"C+t+q+u+v+v+B+B+v+v+A+q+t+y+y+q+q+y+y+t+y+t+q+y+r+t+v+v+u+u+u+w+F+k+F+u+u+t+y+v+B+B+B+A+A+u+t+r+r+w+q+u+A+A+u+A+A+s+u+z+t+r+F+r+",
"u+A+v+B+v+v+A+u+q+w+t+t+t+t+y+q+w+F+F+r+y+q+q+t+C+q+B+v+u+q+y+u+t+C+t+q+y+q+s+B+B+B+s+A+q+q+q+q+q+u+u+A+s+A+q+s+u+w+C+C+r+F+r+r+",
"A+A+q+t+y+t+y+y+y+y+z+u+u+A+y+q+q+y+y+t+t+y+y+t+u+v+v+u+y+q+u+w+r+F+C+t+u+s+v+A+u+q+u+q+C+r+C+t+y+z+A+B+A+q+t+w+w+C+r+r+C+w+q+u+",
"q+t+w+C+r+r+t+u+s+v+B+B+u+F+k+E+C+z+q+w+r+C+q+v+A+y+w+w+y+y+C+C+w+C+C+y+s+B+s+A+q+u+u+z+q+C+t+q+z+A+B+A+y+C+r+y+z+z+y+y+q+u+u+z+",
"w+C+C+r+C+y+s+B+v+A+y+r+x+F+r+F+C+z+y+t+y+v+B+A+y+t+w+y+q+y+w+t+q+A+B+B+v+A+u+y+y+C+F+w+q+q+q+A+v+B+v+A+q+y+y+A+v+v+u+w+w+y+y+C+",
"C+t+q+A+v+B+v+y+t+q+w+F+C+F+x+t+A+w+w+A+v+B+v+w+F+x+k+w+s+y+x+t+v+D+B+v+s+q+w+C+C+r+x+t+s+v+v+B+v+v+s+A+u+y+q+u+u+y+w+r+F+F+F+x+",
"u+v+B+B+D+v+w+E+F+t+t+C+w+w+C+y+u+u+B+B+A+s+q+F+x+G+G+y+v+t+C+A+D+B+v+u+y+t+r+F+r+t+y+q+v+B+B+u+t+w+r+x+x+x+x+r+C+w+w+r+F+r+r+t+",
"B+v+u+s+u+C+F+r+r+C+y+y+y+t+w+q+A+B+B+A+w+w+y+q+t+r+t+q+y+C+q+B+D+v+u+w+C+r+F+x+x+t+r+x+w+y+w+C+F+x+x+x+x+x+r+r+F+C+w+t+t+u+v+B+",
"u+t+z+A+y+r+x+F+y+A+w+t+q+u+A+v+D+D+B+A+y+t+t+r+r+x+C+u+y+C+y+A+v+v+A+z+y+w+w+w+C+r+r+C+C+r+r+r+F+F+r+C+r+r+r+C+t+y+u+s+B+B+v+s+",
"t+t+t+w+q+u+y+y+u+u+t+q+A+B+B+D+D+D+s+A+s+v+u+C+C+C+x+C+u+u+w+C+t+z+u+u+u+A+A+q+t+w+w+w+y+y+C+C+C+t+w+C+C+t+q+u+s+v+B+B+B+s+z+t+",
"y+r+F+C+q+u+y+t+q+A+v+B+D+D+D+D+D+D+v+A+A+v+v+u+t+r+r+u+A+t+x+F+r+t+q+w+C+y+q+y+q+q+y+y+q+y+y+y+y+y+y+q+q+z+u+u+A+v+B+B+v+u+q+q+",
"t+t+q+y+A+A+u+A+v+B+v+A+u+q+q+q+u+A+s+A+A+s+v+v+v+q+q+u+t+r+r+C+C+x+r+y+q+t+F+F+r+C+C+y+q+C+C+y+q+y+y+q+q+q+q+y+t+y+z+u+A+u+A+u+",
"A+s+A+A+v+s+A+u+q+C+w+q+z+y+w+t+t+y+q+u+y+t+y+u+A+s+v+A+u+u+y+w+C+r+w+A+u+F+x+r+C+F+k+F+q+u+y+y+C+r+C+C+C+y+q+w+t+z+q+y+q+z+z+A+",
"A+s+s+s+u+q+C+C+r+F+w+q+u+q+t+C+t+t+r+t+A+u+y+t+t+q+u+s+v+A+u+q+t+t+y+z+u+q+y+t+t+C+r+w+y+A+A+t+F+r+r+r+r+C+y+y+w+w+y+y+t+y+z+u+",
"q+u+s+s+A+q+w+w+t+q+y+C+C+u+A+u+y+t+t+u+u+w+C+t+q+y+y+z+A+s+v+A+u+q+y+y+y+y+u+A+u+w+w+t+t+y+y+t+w+w+t+C+r+t+u+u+y+C+r+C+w+t+u+A+",
"u+q+u+A+q+q+q+y+q+u+u+u+u+u+u+z+y+t+q+u+w+C+t+w+r+C+u+u+t+q+u+A+v+B+B+D+B+v+s+u+u+z+y+y+y+q+t+C+t+y+q+y+t+t+C+y+y+C+r+w+t+C+C+u+",
"q+q+u+A+s+s+s+A+v+v+B+B+v+A+q+y+t+C+u+A+w+C+w+t+C+y+A+y+w+q+q+A+s+v+B+D+D+D+D+D+D+B+v+v+s+A+A+u+q+q+y+y+t+w+w+t+A+u+C+F+x+C+y+u+",
"q+q+u+A+B+B+B+B+B+v+A+u+z+z+y+t+y+C+C+C+u+A+z+t+y+y+t+y+q+u+q+u+q+z+q+z+u+u+u+u+u+A+v+v+B+D+D+D+B+v+v+A+u+q+t+w+q+u+t+F+w+q+q+u+",
"C+q+u+A+B+v+v+v+v+z+q+t+y+t+C+r+r+r+F+C+q+z+q+y+y+y+q+q+q+y+w+w+w+t+y+t+t+w+y+y+w+w+t+y+y+z+u+s+v+B+D+D+B+s+q+w+t+q+t+w+C+F+r+r+",
"C+u+s+u+v+v+s+A+s+A+A+q+z+q+t+C+w+w+t+u+u+q+q+A+v+s+u+y+y+q+q+q+q+y+y+y+t+q+u+y+t+y+y+t+w+t+w+t+y+u+A+v+v+v+u+y+C+w+v+y+F+x+C+F+",
"z+v+A+u+v+s+u+A+s+A+A+q+q+u+u+u+A+v+v+B+v+A+A+s+A+y+w+t+t+t+w+q+u+q+C+C+C+F+x+F+y+q+t+t+y+q+y+w+t+y+t+t+y+t+y+C+w+z+u+C+x+r+r+F+",
"q+u+s+B+v+v+v+B+v+v+v+v+v+v+B+B+B+v+u+y+q+A+u+w+C+C+w+C+F+F+t+q+u+t+r+C+w+C+x+x+C+z+z+q+w+C+w+t+q+q+t+w+y+y+y+t+y+y+q+q+q+y+t+t+",
"u+s+B+B+B+B+B+B+B+B+B+B+D+D+B+v+u+t+C+t+y+q+u+t+F+r+C+t+w+y+u+q+q+u+u+u+q+y+w+t+z+u+z+w+C+t+w+r+C+u+u+t+C+w+w+C+F+F+w+u+z+y+q+z+",
"A+A+A+A+u+A+A+s+s+v+B+D+B+q+t+u+u+C+r+C+w+y+u+y+t+q+A+A+s+A+A+A+A+A+s+A+A+u+u+z+q+q+y+q+y+t+w+C+y+u+q+C+w+t+w+C+r+r+y+t+w+q+q+u+",
"z+z+q+y+y+u+s+s+v+B+v+u+y+y+A+q+C+r+F+x+C+u+q+C+y+s+v+v+v+A+u+u+z+q+y+y+A+A+z+q+u+u+q+q+u+A+A+q+t+y+t+w+q+q+y+y+u+u+w+w+y+z+A+u+",
"y+t+u+u+u+s+B+B+v+u+y+t+C+z+q+r+r+r+x+w+v+u+u+v+A+q+y+y+y+y+q+q+t+C+r+r+y+u+t+C+C+t+q+y+A+B+v+u+y+t+t+y+q+q+z+z+q+q+q+u+s+s+u+q+",
"C+t+u+s+B+B+s+q+u+A+y+r+w+u+z+t+r+F+y+B+B+A+u+y+w+C+C+w+r+r+C+C+r+F+F+r+w+w+r+r+C+y+y+w+q+A+y+y+u+u+A+A+A+A+A+A+s+v+B+B+v+A+q+t+",
"q+z+s+v+v+y+F+C+u+y+G+m+x+t+z+u+u+A+s+v+A+t+C+F+E+r+q+u+y+C+F+r+C+r+C+w+y+y+C+F+r+w+t+q+t+C+t+q+y+q+s+B+D+D+D+D+D+D+B+v+u+y+C+w+",
"u+A+A+t+r+x+r+q+y+x+F+r+F+t+A+A+A+s+u+z+t+r+F+x+x+F+w+u+q+C+w+u+u+y+y+z+u+q+t+t+t+w+y+u+q+C+t+y+q+z+u+v+D+D+D+D+D+B+s+u+y+C+r+t+",
"s+q+C+w+r+C+q+q+w+r+F+F+y+s+s+s+u+w+C+C+r+F+F+r+F+F+C+u+v+A+v+B+v+v+v+v+v+A+u+u+s+A+t+F+C+t+y+y+u+A+A+A+B+D+D+B+v+s+u+w+r+r+w+u+",
"u+y+r+F+F+C+q+u+t+r+t+u+s+A+u+u+y+r+F+C+r+x+F+C+y+u+s+v+v+A+A+q+t+t+q+A+v+v+v+s+v+u+y+C+r+r+r+w+z+u+y+z+B+D+B+v+A+z+t+C+C+C+q+A+",
"r+x+x+F+x+E+r+u+s+u+u+A+A+y+F+x+w+q+y+C+F+C+y+A+v+s+q+t+q+s+A+w+C+y+y+q+u+q+s+B+v+u+q+t+r+F+r+C+t+q+t+y+v+B+v+A+z+q+y+C+C+C+C+t+",
"C+C+t+r+w+y+A+A+A+u+y+t+y+t+F+x+t+v+s+u+u+B+v+u+y+y+t+r+C+z+u+A+v+A+q+C+F+t+z+B+D+B+A+y+C+r+r+r+C+w+y+u+v+B+s+A+u+u+y+r+F+r+t+y+",
"z+u+q+u+v+v+A+y+t+C+r+F+C+t+t+t+q+A+v+A+q+t+w+w+y+C+C+u+v+v+B+A+q+z+y+t+C+t+q+v+B+s+u+q+w+r+F+r+C+t+z+s+v+B+s+A+A+u+t+C+r+C+q+A+",
"u+z+u+t+C+C+y+z+t+r+w+y+q+u+q+u+q+t+C+C+r+x+F+C+y+u+s+v+v+B+B+A+q+t+q+u+u+u+u+v+B+u+y+C+r+r+r+C+q+A+u+u+B+D+v+v+A+z+t+C+C+C+q+A+",
"w+C+y+y+t+C+t+u+u+u+u+A+A+y+F+x+w+q+y+C+F+C+y+A+v+s+q+t+q+s+v+A+q+y+y+q+u+q+u+B+B+u+q+t+F+F+F+C+t+q+y+y+v+B+s+A+z+q+y+C+C+C+C+t+",
"w+t+z+u+A+A+u+A+A+u+y+t+y+t+F+x+t+v+s+u+u+B+v+u+y+y+t+r+C+z+u+A+v+A+q+w+t+y+q+B+D+B+A+y+C+r+r+r+C+w+y+u+v+v+A+A+A+A+y+r+F+r+t+y+",
"z+u+q+A+v+v+A+y+t+C+r+F+C+t+t+t+q+A+v+v+A+u+q+u+y+C+C+u+A+s+B+A+t+q+y+t+C+w+q+v+B+s+z+q+w+r+F+r+C+t+y+A+v+s+A+s+s+A+t+C+r+C+q+z+"};
