/* XPM */
static char * 1_xpm[] = {
"64 64 78 1",
" 	c #CE5151",
".	c #E7E7E7",
"+	c #E3E3E3",
"@	c #E8E8E8",
"#	c #E0C7C7",
"$	c #B9B9B9",
"%	c #7D7D7D",
"&	c #535353",
"*	c #525252",
"=	c #545454",
"-	c #747474",
";	c #7A7A7A",
">	c #9F9F9F",
",	c #A3A3A3",
"'	c #A8A8A8",
")	c #C9C9C9",
"!	c #DCDCDC",
"~	c #CECECE",
"{	c #CBCBCB",
"]	c #D0D0D0",
"^	c #D1D1D1",
"/	c #9B9B9B",
"(	c #D6D6D6",
"_	c #DFDFDF",
":	c #C6C6C6",
"<	c #787878",
"[	c #555555",
"}	c #767676",
"|	c #818181",
"1	c #AEAEAE",
"2	c #9E9E9E",
"3	c #E4E4E4",
"4	c #C0C0C0",
"5	c #7E7E7E",
"6	c #A2A2A2",
"7	c #E5E5E5",
"8	c #E1E1E1",
"9	c #5D5D5D",
"0	c #B3B3B3",
"a	c #929292",
"b	c #D3D3D3",
"c	c #BCBCBC",
"d	c #676767",
"e	c #2B2B2B",
"f	c #979797",
"g	c #949494",
"h	c #373737",
"i	c #4F4F4F",
"j	c #727272",
"k	c #ADADAD",
"l	c #ABABAB",
"m	c #9A9A9A",
"n	c #D8D8D8",
"o	c #E6E6E6",
"p	c #DEDEDE",
"q	c #585858",
"r	c #CCCCCC",
"s	c #B5B5B5",
"t	c #797979",
"u	c #A6A6A6",
"v	c #DADADA",
"w	c #A0A0A0",
"x	c #5B5B5B",
"y	c #999999",
"z	c #E0E0E0",
"A	c #9C9C9C",
"B	c #D7D7D7",
"C	c #707070",
"D	c #A7A7A7",
"E	c #969696",
"F	c #737373",
"G	c #686868",
"H	c #C3C3C3",
"I	c #CACACA",
"J	c #595959",
"K	c #D9D9D9",
"L	c #888888",
"M	c #DBDBDB",
"                                                                ",
"                                                                ",
"                                                                ",
"                                                                ",
"                                                                ",
"                     .++++++@#                                  ",
"                    $%&****=-;>,,,,,,')!~{{{{{]                 ",
"                    ^/(++++_~:',,,,,,><[-}}}}}|                 ",
"                    12                #3@#####                  ",
"                    45                                          ",
"                    '>                                          ",
"                    ,,                                          ",
"                    ,,                                          ",
"                    ,,                                          ",
"                    ,,                                          ",
"                    ,,                                          ",
"                    ,67                                         ",
"                    ,/,':{{{{{{{{{{{{~8                         ",
"                    ,/,>;}}}}}}}}}}}}-9.                        ",
"                    ,67 #############@7                         ",
"                    ,,                                          ",
"                    ,,                                          ",
"                    ,,                                          ",
"                    ,,                                          ",
"                    ,,                                          ",
"                    ,,                                          ",
"                    ,,                                          ",
"                    ,,                                          ",
"                    ,,                                          ",
"                    ,,                   3)0                    ",
"                    6ab~{{{{{{{{{{{{{{{{cdef                    ",
"                    ghi-}}}}}}}}}}}}}}}}-jk                     ",
"                    lmn@################@o                      ",
"                                                                ",
"                                        p                       ",
"                                       lqr                      ",
"                                       s5tuv                    ",
"                                        o)wxw)7                 ",
"                                           vu;;uv               ",
"          ##                                 7)wx,v             ",
"        !yt;>,,')z@###################@o        v,xAl_          ",
"         Br:',,><[-}}}}}}}}}}}}}}}}}}}-C,         vDEFu         ",
"                #z~{{{{{{{{{{{{{{{{{{{c},          4fG,         ",
"                                       .         !H|,:          ",
"                                                IJtK            ",
"                                     ]{{{{{{{{:wqLM             ",
"                                     |}}}}}}}};uv               ",
"                                      #########                 ",
"                                                                ",
"                                                                ",
"                                                                ",
"                                                                ",
"                                                                ",
"                                                                ",
"                                                                ",
"                                                                ",
"                                                                ",
"                                                                ",
"                                                                ",
"                                                                ",
"                                                                ",
"                                                                ",
"                                                                ",
"                                                                "};
