/* XPM */
static char * door_open_xpm[] = {
"64 64 5 1",
" 	c #4F2B1B",
".	c #000000",
"+	c #FFC20E",
"@	c #FFF9BD",
"#	c #361D12",
"                               .                                ",
"                               .                                ",
"                               .                          .     ",
"                               .   .                      .     ",
"                               .                                ",
"                               .                                ",
"                               .                                ",
"                               .      .                         ",
"                               .      .                         ",
"       .                       .      .                         ",
"       .                       .      .                         ",
"       .                       .      .                         ",
"       .                       .      .                         ",
"       .                       .      .                         ",
"       .                       .      .            .            ",
"       .                       .      .            .            ",
"       .                       .      .            .            ",
"       .                       .      .                         ",
"       .                       .                                ",
"       .             .         .                                ",
"       .             .         .                                ",
"       .                       .                                ",
"                               .                                ",
"                               .                                ",
"                               .                                ",
"                               .                                ",
"                               .                                ",
"                               .                                ",
"                               .                                ",
"                   .......     .     .......                    ",
"                   .+++@@.     .     .@@+++.          .         ",
"                   .+++@@.     .     .@@+++.          .         ",
"                   .+++++.     .     .+++++.          .         ",
"                  #.+++++.     .    #.+++++.          .         ",
"                  #.+++++.     .    #.+++++.          .         ",
"                  #.......     .    #.......          .         ",
"                  ########     .    ########          .         ",
"                               .                      .         ",
"                               .                      .         ",
"                               .                      .         ",
"                               .                                ",
"             .                 .                                ",
"             .                 .                                ",
"             .                 .                                ",
"             .                 .                                ",
"             .                 .                                ",
"             .                 .                                ",
"             .                 .        .                       ",
"                               .        .                       ",
"                               .        .                       ",
"                               .                                ",
"                               .                                ",
"                           .   .                                ",
"                           .   .                                ",
"                           .   .                           .    ",
"   .                       .   .                           .    ",
"   .                       .   .                           .    ",
"   .                           .                           .    ",
"                               .                          .     ",
"                               .                          .     ",
"                               .                          .     ",
"                               .                                ",
"                               .                                ",
"###############################.################################"};
