/* XPM */
static char * door_closed_xpm[] = {
"64 64 4 1",
" 	c None",
".	c #000000",
"+	c #4F2B1B",
"@	c #361D12",
".                                                              .",
"+.                                                            .+",
"++.                                                          .++",
"+++.                                                        .+++",
"++++.                                                      .++++",
"+++++.                                                    .+++++",
"++++++.                                                  .++++++",
"+++++++.                                                .+++++++",
"++++++++.                                              .+++++.++",
"+++++++++.                                            .++++++.++",
"++++++++++.                                          .+++++++.++",
"+++++++++++.                                        .+++++++++++",
"++++++++++++.                                      .++++++++++++",
"+++++++++++++.                                    .+++++++++++++",
"++++++++++++++.                                  .++++++++++++++",
"+++.+++++++++++.                                .+++++++++++++++",
"+++.+++++++++++.                                .+++++++++++++++",
"+++.++++++++.++.                                .+++.+++++++++++",
"+++.++++++++.++.                                .+++.+++++++++++",
"+++.++++++++.++.                                .+++.+++++++++++",
"+++.++++++++.++.                                .+++.+++++++++++",
"++++++++++++.++.                                .+++++++++++++++",
"++++++++++++.++.                                .+++++++++++++++",
"+++++++++++++++.                                .+++++++.+++++++",
"+++++++++++++++.                                .+++++++.+++++++",
"+++++++++++++++.                                .+++++++.+++++++",
"+++++++++++++++.                                .+++++++.+++++++",
"+++++++++++++++.                                .+++++++.+++++++",
"+++++++++++++++.                                .+++++++.+++++++",
"++++.++++++++++.                                .+++++++.+++++++",
"++++.++++++++++.                                .+++++++.++++.++",
"++++.++++++++++.                                .++++++++++++.++",
"+++++++++++++++.                                .++++++++++++.++",
"+++++++++++.+++.                                .++.+++++++++.++",
"+++++++++++.+++.                                .++.+++++++++.++",
"+++++++++++.+++.                                .++.+++++++++.++",
"+++++++++++.+++.                                .++++++++++++.++",
"+++++++++++.+++.                                .++++++++++++.++",
"+++++++++++.+++.                                .++++++++++++.++",
"+++++++++++++++.                                .++++++++++++.++",
"+++++++++++++++.                                .++++++++++++.++",
"+++++++++++++++.                                .+++++++++++++++",
"++.++++++++++++.                                .+.+++++++++++++",
"++.++++++++++++.                                .+.+++++++++++++",
"++.++++++++++++.                                .+.+++++++++++++",
"++.++++++++++++.                                .+.+++++++++++++",
"++.++++++++++++.                                .+.+++++++++++++",
"++.++++++++++++.                                .+.+++++++++++++",
"++.++++++++++++.                                .+.+++++++++++++",
"++.++++++++++++.                                .+.+++.+++++++++",
"+++++++++++++++.                                .+++++.+++++++++",
"+++++++++++++++.                                .+++++.+++++++++",
"+++++++++++++++.                                .+++++.+++++++++",
"+++++++++++++++.                                .+++++.+++++++++",
"+++++++++++++++.                                .+++++.++++++.++",
"+++++++++++++++.                                .+++++.++++++.++",
"+++++++++++++.+.                                .++++++++++++.++",
"@@@++++++++++.+.                                .++++++++++++.++",
"@@@@@++++++++.+.                                .++++++++++++.@@",
"@@@@@@@@+++++.+.                                .+++++++++++@.@@",
"@@@@@@@@@@@@+.+.                                .++++++++@@@@.@@",
"@@@@@@@@@@@@@.@.                                .+++++@@@@@@@.@@",
"@@@@@@@@@@@@@@@.                                .+@@@@@@@@@@@@@@",
"@@@@@@@@@@@@@@@.                                .@@@@@@@@@@@@@@@"};
