/* XPM */
static char *_296cbb7064a41fbfbe0abe1fcaa23d9L3hBpYoQb1H50FzX[] = {
/* columns rows colors chars-per-pixel */
"64 64 248 2 ",
"   c #030402",
".  c #0A0502",
"X  c #060903",
"o  c #0A0A05",
"O  c #05060A",
"+  c #040A0B",
"@  c #0B0B0B",
"#  c #09070B",
"$  c #120D0B",
"%  c #180902",
"&  c #0E110C",
"*  c #0C1304",
"=  c #111304",
"-  c #12130D",
";  c #1E140B",
":  c #191A08",
">  c #0D0D11",
",  c #120E11",
"<  c #0E1112",
"1  c #131413",
"2  c #1A1614",
"3  c #161914",
"4  c #1B1C15",
"5  c #1C1D1B",
"6  c #171719",
"7  c #280B03",
"8  c #271608",
"9  c #371809",
"0  c #221E1C",
"q  c #2A1A13",
"w  c #351D16",
"e  c #390E00",
"r  c #1D230C",
"t  c #152109",
"y  c #1E2215",
"u  c #1E211B",
"i  c #1E2810",
"p  c #22260D",
"a  c #2A2E0C",
"s  c #24280B",
"d  c #2D330B",
"f  c #2E3406",
"g  c #343A0A",
"h  c #222515",
"j  c #252A15",
"k  c #2A2D15",
"l  c #22241B",
"z  c #252A1C",
"x  c #2A2D1C",
"c  c #2C2418",
"v  c #382517",
"b  c #2C3214",
"n  c #2D321C",
"m  c #2B3617",
"M  c #323615",
"N  c #343B13",
"B  c #3A3C14",
"V  c #32351C",
"C  c #353A1C",
"Z  c #393D1D",
"A  c #3C351A",
"S  c #38230D",
"D  c #1C1F23",
"F  c #1E2222",
"G  c #232422",
"H  c #262A23",
"J  c #2A2C23",
"K  c #2C2C2A",
"L  c #282727",
"P  c #332C27",
"I  c #2D3222",
"U  c #2D322A",
"Y  c #2F3924",
"T  c #323523",
"R  c #353A23",
"E  c #393D23",
"W  c #33342B",
"Q  c #353A2A",
"!  c #3A3D2B",
"~  c #393529",
"^  c #2E2E33",
"/  c #2F3131",
"(  c #353532",
")  c #3A3B33",
"_  c #3D3D3A",
"`  c #383933",
"'  c #211F20",
"]  c #571D0B",
"[  c #441809",
"{  c #452819",
"}  c #532A16",
"|  c #59371E",
" . c #4B2711",
".. c #692F1C",
"X. c #493627",
"o. c #593727",
"O. c #453D37",
"+. c #4D332A",
"@. c #673827",
"#. c #763A26",
"$. c #6D3830",
"%. c #3A430B",
"&. c #3D4314",
"*. c #3B431B",
"=. c #3A481A",
"-. c #3C4324",
";. c #3C432B",
":. c #3A4527",
">. c #3D4236",
",. c #454809",
"<. c #565A0D",
"1. c #444A14",
"2. c #42461E",
"3. c #434A1D",
"4. c #484917",
"5. c #4A531B",
"6. c #49541A",
"7. c #545819",
"8. c #52491E",
"9. c #5A621A",
"0. c #646C1A",
"q. c #6D7215",
"w. c #424524",
"e. c #434B24",
"r. c #4C4C24",
"t. c #42452C",
"y. c #454B2C",
"u. c #4A4C2A",
"i. c #554929",
"p. c #4B5423",
"a. c #4C532C",
"s. c #4A5626",
"d. c #52542C",
"f. c #545C2C",
"g. c #585927",
"h. c #434532",
"j. c #444A32",
"k. c #4A4D33",
"l. c #43433D",
"z. c #48483B",
"x. c #574736",
"c. c #4D5233",
"v. c #4E5737",
"b. c #555836",
"n. c #66422E",
"m. c #7D442C",
"M. c #694735",
"N. c #774835",
"B. c #77573B",
"V. c #675735",
"C. c #596526",
"Z. c #5B6334",
"A. c #566235",
"S. c #656927",
"D. c #6A7326",
"F. c #767A27",
"G. c #666738",
"H. c #687232",
"J. c #747734",
"K. c #736938",
"L. c #454542",
"P. c #4B4B45",
"I. c #4A4A45",
"U. c #534E47",
"Y. c #57554A",
"T. c #5A5A54",
"R. c #4D504A",
"E. c #6C5344",
"W. c #785647",
"Q. c #71564F",
"!. c #656647",
"~. c #65645A",
"^. c #746D4D",
"/. c #686766",
"(. c #736E66",
"). c #77746A",
"_. c #7D7E78",
"`. c #5D6041",
"'. c #874A37",
"]. c #87543A",
"[. c #97533C",
"{. c #894935",
"}. c #875A46",
"|. c #965947",
" X c #9C5C50",
".X c #A95C45",
"XX c #8B6348",
"oX c #98634B",
"OX c #896957",
"+X c #986A56",
"@X c #967459",
"#X c #88774C",
"$X c #A8684B",
"%X c #BA714D",
"&X c #A66954",
"*X c #B56A57",
"=X c #A6765B",
"-X c #B7775A",
";X c #B76A4C",
":X c #9D7B66",
">X c #827C72",
",X c #A87865",
"<X c #B87765",
"1X c #A77769",
"2X c #C37B5A",
"3X c #C2764E",
"4X c #C37C65",
"5X c #D07E66",
"6X c #7C822D",
"7X c #7D8178",
"8X c #898D32",
"9X c #A0A53E",
"0X c #878B47",
"qX c #8E9252",
"wX c #9DA251",
"eX c #A8AD4B",
"rX c #8A8779",
"tX c #938B7E",
"yX c #A9856B",
"uX c #B78566",
"iX c #BB8872",
"pX c #BC8159",
"aX c #C9835D",
"sX c #C48563",
"dX c #CA8868",
"fX c #CB916D",
"gX c #C68974",
"hX c #D58A75",
"jX c #C99577",
"kX c #DC9B7C",
"lX c #D69576",
"zX c #D58C6B",
"xX c #E2977C",
"cX c #DEA17C",
"vX c #E8A57F",
"bX c #919088",
"nX c #A29E92",
"mX c #A5A398",
"MX c #D89A81",
"NX c #CF9B85",
"BX c #E39A83",
"VX c #D8A488",
"CX c #E9A889",
"ZX c #F2A987",
"AX c #ECAC92",
"SX c #F3AA91",
"DX c #F4B39A",
"FX c #ECB092",
/* pixels */
"l l l l u l l u H H l l h y h x k x J I U ` ;.;.R t.(.tXrX!.w.V V V C C j j x y y z G l z h x V k x T x h h H 5 5 G l 5 G G 5 u ",
"u l l l l l l 5 L H h u y h x n k n x z I ;.Y Y n j.(.!.Y.!.u.y.y.C b C C C R T I H l l I T n k k R n j z z I l 4 G U l l L 5 u ",
"u l l l l l u u z l h h z x x x x R I z I Y n R ;.c.!.t.c.^.`.c.e.e.a.a.c.j.j.z.! Q T T R -.*.M M ;.R n x x x x y z ) x l J y y ",
"l l l l l 5 u l h h h h z J x x x n x x x x n j.-.v.b.E V Z -.-.e.e.e.Z -.R T h h y y z T -.:.m n n V n R h.x x z z T J h z y z ",
"l l l l l y l h z z h h z x J x J h y z j I R h.C t.M M C C ;.j.;.m r t r = o X o X X * : z Y n j p n V T ;.x x z h h x z h z I ",
"l l l l l l h h x z z z z x x z z y x T x T R T R -.M m C -.;.! y 4 y u : X X & & & o     o y z x n n R Y x z h z z y z h h I z ",
"G l l l l l h z z z x J J z h l u z Q Q x x x n t.t.Z Z E ;.Y z 5 5 5 3 & & & & & o o o @ @ @ @ u H h z T J x 4 h h l h l z H l ",
"G G l l l h h z x z z x z h h l l z I n p r h R k.k.-.y.-.R I u 6 6 6 5 @ 3 3 & & - @ @ #     o   u H 4 z l y l 4 4 l h l H G G ",
"G l 5 l l l z x x I h h z l h l u z h r k k R t.-.w.e.v.-.t y 3 3 6 3 3 5 5 5 F 6 u G @ @ O       & u H u l h l J y h J H u u u ",
"G 5 3 5 l u H J z x h h l h l l H y r j V R E E R n -.y.n : - - 1 3 3 0 0 0 5 6 1 5 0 2 1 X X X     1 U U J 4 h z h h z H l u u ",
"G l 3 5 l u l z z z h u u l J z u u J Q x x x n x j n T h - o 1 4 4 ; ; q w w q q w q c l 3 &   O     H W x : h h r : j T W z 4 ",
"l l l l l l h l l l l l 4 l I J z J W W z z h x T I Q Q l 1 $ $ ; 8 v +.Q.:X1X1X1X:XOXQ.X.c ; 2 @ o   - x h j n C k r : z J z h ",
"3 l l l l l h y y h J z y z J J z I H H J J z >.R.Q >.>.G 0 2 ; { W.yXjXNXVXCXFXFXFXVXNX1XM.q 8 $ @   X z h V E y.w.M j k j h z ",
"4 z z z h 4 u 4 4 h I I z z z x n j j x ! T n v.v.:.T h 5 0 2 +.:XiXkXlXkXCXZXZXZXvXkXjXjX,Xn.7 $ @ o   z j k C w.-.C V R n h : ",
"z x x x h 4 y 4 y z T I x x j k *.M C C y.y.-.v.s.a.n = : ; P OXiXjXlXlXkXCXZXZXZXZXcXjXjXiX+X{ $ O #   h V j b E C M k j x x y ",
"z z z J x 4 y y h z I x x k p a N =.a.*.Z *.-.f.s.A.-.Z 8 % E.yXuXfXlXlXCXSXSXZXZXvXcXkXfXuX,Xo.$ #     4 h.V M E w.y.V p j J x ",
"0 0 l J K G 4 h k b n J z h d =.2.G.Z.2.N M b s.G.f.d.d.8 w +X-XsXdXlXkXCXCXAXFXCXCXcXfXjXgX=Xn.; $ .   z >.V V B r.d.B b k z J ",
"G 5 3 4 l l 4 h j n T I x T e.p.2.b.G.5.*.*.Z a.qXH.7.Z.% +.=X=XsXdXkXCXAXAXFXCXFXCXcXlXfXgX<X@.% - @   l ) R C w.4.f.r.B j j z ",
"G 5 4 y l l l h h x I z h R w.N V C g.f.e.w.e.e.qX0XD.g.% X.@XuXfXjXMXCXDXAXSXDXFXCXVXMXjXjX,Xn.% o #   l ! R C 2.r.r.r.r.b r j ",
"3 5 y y y u u l h h h h j C M s s M g 1.2.d.2.d.g.S.6XH.= x.yXyXyXiXiXjXBXBXBXdX&X|.oXXXXX,X,XW.w .   3 H I R n w.e.d a -.R x j ",
"5 u u 4 4 4 u l h l h x E Z g d d &.,.,.4.G.g.S.1.g 6X0Xo i.V.{ 9 [ M.+X-X-X-X[.@.e 7 e 9 9 } }.x.% . T Q n n k M Z C C V I J l ",
"l l u 5 5 5 u z h h j V *.B %.4.5.6.9.D.8.K.S.K.7.,.0.D.a X.9 +.+.v [ @.oX-X$Xm.] } W.OXW.M.| n.^.8 . t.j.R R b R y.y.E h 4 l J ",
"u u D 5 5 5 h n k j C w.B ,.7.9.S.J.8X6XS.G.g.qXqX,.0.S.B O.M.W.Q.x.[ [ [.lX-X'...o.o.} } n.].@XOX8 . X.k.;.:.V R y.;.R R T h z ",
"l G G D 5 5 I t.M d e.p.1.7.F.F.0.8XeX8XK.G.S.wX0X9.0.0.{ Q.M.[ [ 9 ..].oXfXsX$XoX].@.}  .].-X=XOX{ % X.c.y.:.n b C -.-.R j.Q n ",
"l H l u 5 G ! C g g.g.5.4.0.6X8X8X8X8XF.G.G.S.0XJ.C.D.S.8.OX+X'.].].$X*X;XzXdX$XsX-X$X$X$X<XsX<X+X} 8 x.i.u.-.C m C ;.;.V b -.R ",
"T J h h u 4 h s 1.g.g.,.,.<.q.9XeX8X0.<.Z.^.C.C.7.7.C.<.g.@XuXdX4X-XdX-X%XlXdX%X2XlXcXkXlXhXdX-XoX} | B.i.d.w.*.*.C R R R R :.-.",
"x x k p x T j : g 7.S.,.,.<.q.eXwXF.<.F.G.f.6.C.7.C.C.,.i.@XuXhXBXBX4X*X-XkXfX-X2XsXBXSXSXBXlX<XoX} B.K.g.f.r.N e.-.R R E Q R R ",
"h V C s x h.R s f g.J.7.S.7.<.F.q.0.F.8XG.3.%.C.6.1.6.1.X.@XgXhXBXhX*X<XhXDXMX4XlX$X*XhXSXMXhX<X}.| @X#XK.G.f.e.e.-.t.E j.-.M C ",
"x k b p j T x E N 1.5.1.C.5.,.<.<.0.0XJ.g.e.6.C.1.3.p.5.8.OXiXgX<X|.|.'.|.iX|.#.#.{. X|.<XgX<X,XW.o.W.^.G.G.Z.f.*.*.y.C k.-.N *.",
"n j j j h h j C B g g g p.p.6.1.%.9.0XS.r.r.p.p.%.p.f.r.b.B.+X,X|.|.].] ] } ] ] .. X*X'.[.&XoX].N.o.X.r.f.Z.Z.d.e.y.b.-.u.w.*.d.",
"n x H G 5 y j M *.g =.&.2.5.,.%.N g g.g.d.a.3.&.3.f.s.p.G.g.N.].#.|.oXoX&X'.|.<X<X<X<X&Xm.'.{.N.n.i.d.r.g.p.Z.A.e.y.c.V E -.V u.",
"x h l G u z R y.3.f e.w.N 3.5.Z.v.N g 4.d.b.a.e.5.A.=.5.G.i.M.}.m.m.#.'.m.}.|.{.#.....#.{.&XoX].n.i.b.2.&.1.Z.Z.v.y.;.V E k.M Z ",
"h z l l h n u.f.p.g d -.M Z Z.!.A.=.g 5.f.!.a.&.p.C.6.p.d.r.i.@X=X{.[ @.,X,X,X,X,XN.] [.-XsX=XXXi.r.d.2.&.a.^.A.c.y.V R j.t.k C ",
"x x G l h k *.3.3.g M Z b b 3.p.6.6.p.f.b.!.a.&.C.H.C.A.b.c.i.W.uX-X|.'.<XgX<XgX X|.&X-XsXsXXXB.r.r.r.w.2.e.b.y.t.n Y ! R ! V C ",
"j z u u l h m N g d k C E C =.5.C.C.f.Z.c.k.-.*.C.Z.C.A.c.k.w.i.XXuX*X[.[.*X*X$X$X.X%XdXsX&X}.M.S k.c.v.-.b V Q ;.Q Q Q x x x R ",
"r y 3 3 5 h k k a a j T t.C N p.C.7.C.G.a.M s N 5.5.s.v.t.! E X.@.&X-X$X.X.X*X*X;X%X3XaX-X}.N.{ c h.z.v.t.Q Q ;.T Q Y I I J z T ",
"j h 3 3 5 l z j n V x V E M N p.p.6.C.H.C.1.%.6.1.=.:.y.Q Q V v { N.uX$X;X;X;X%X%X%XzXpXXXM.{ w P I J Q ! j.j.>.Y U J I Y Q J h ",
"Y I l 4 F l h h x T J x V M =.p.g.6.7.0.0.S.C.C.p.s.:.:.R t.;.V v { XXsX3XzX5XzX2XaXfXoX| { 9 w L G u I H I I I ;.>.I j j z x T ",
"Y Y h 5 G G l y h J I x j b *.=.p.6.9.0.D.0.g.p.e.a.:.-.*.e.e.w.h.X.i.iX-XzXxXhX4XgX,Xn.8 8 { { P.I.H U z x n i Q ;.n r r p R Y.",
"z z u 3 l l l h y j I T j k *.=.1.C.J.D.<.1.B M j R :.:.*.C m R z.O.S N.-X4XhXhXgX+Xo.7 7 q M.M.>X7XU H y R j.V b k k Z k m c.!.",
"y l l u 5 u z z j x x n p p -.*.6.S.H.7.,.f M J H R.l.y * j u ` c O.o.e @.}.}.XXW.w % 7 { M.}.E.Y.T.H H Q Q j.j.t.C -.c.Z E b.c.",
"5 5 4 5 h x I Y j j n T j r k d %.1.1.1.d s J ( /.R.5 1 4 ` K K . +.W.{ e [ 9 9 7 % q w @.}.OXx.~ H 5 T.(.z.;.k.b.y.c.-.m t.t.C ",
"4 4 3 4 h x n V n k V R n r r k g d C ! z J L 5 6 O + 1 G 1 F ' q { W.o.9 8 8 8 ; q w | |.=XE.q L - @ L.T.l.W h.! R k.t.R t.! T ",
"3 3 4 4 y h j n V k V V n j p C 2.-.n 4 G / 6 # O O > @ + 1 L K x.X.W.W.o.{ S v v v o.XX,X+X8 c l 1 @ 5 G L l 4 = = : h I ! Q I ",
"3 3 4 y h y h j x j x j j k j -.f.p.= 1 ^ D O # # O   O @ F F / ).x.M.W.W.N.@.$.$.$.|.,X+XS q H 3 @ @ > > 5 1 o X X   X - u J J ",
"4 3 3 h z h y y h h x h j x j C G.N   I._ > O # #   @ @ 3 u D / (.E.x.M.}.oX&X&X|. X&X,X{ % L 5 1 O @ > # < > @ @ o o     o 1 G ",
"4 3 4 x J l 4 4 h z x h j x x R Y.= 5 _.` * o X O #   > 4 >.H 5 ( U.X.o.n.|.&X|.{.|.+Xo.. 5 L F & X o @   # O O @       X X @ 1 ",
"4 4 z T T x l l l x x j j x T ! >.  R.bXl.z * o o O > 5 G l 5 @ K P % o.M.N.'.#.'.+XM.% 2 L L 5 o o o X   @ # O @ u & o   @ L F ",
"y : j R E x l u H J x V k p t.z.) 3 Y.).I.` J 1 @ o 1 G 3     O - J q v E.W.$.W.W.E.8 ; P L.( 1 @ X @ O   O # O O 5 G 3 1 6 / G ",
"4 : k M C n x l l J V C M b ! T T.W W l.l.l._ ( L 2 l ` L $ o   @ l P q x.Q.W.{ w w . . 1 K W F 1 @ @ X     O O @ 3 K / 1 @ @ 1 ",
"4 4 n C Z V x h 4 x M M M k h : 7XY.4 3 K _ l.I.l.` R.Y.J - @ @ O 6 L P X.Q.v % q $ .       < 5 3 & O           @ o K ( 5 X O @ ",
"5 4 n R E C n h p k Z Z M k = $ rX~.1 @ 3 G ( l.L.~.bX).` 5 - @ O   1 4 L O.; 0 l     O + O O # l 3 o   o o o o # L T.T.u   o X ",
"5 3 n R -.C M k s b y.u.Z x - 3 Y.T.3 O @ @ 5 W l._.mX_.I.( G 6 6 O @ o - $ l 5 X   @ O O @ < G W l $ o $ o $ 2 J T.bX(.o   X - ",
"5 3 T t.y.-.M b s b u.a.C k = 3 l I.5   O @ @ 3 >._.bX~.I.L._ ( 5 3 - - $ - H 1 + + + + 1 5 L l.Y.~ l l l 0 l O.~.).nXT.  o @ G ",
"6 5 W h.j.-.M k k M y.u.M n - - @ W l     @   @ K T.T.l.l.l.L.>.l.W ~ ~ z.l l 3 & 4 u U U ` U.).(.L.l.l.l.l.O.Y.T./.nXO.  o 1 K ",
"6 3 J R ! R C n k M w.-.x T 4 @   1 5 O   O @ @ L ) L l K ` l.l.l.z.U.).bXU.z.J W _ _ L.l.T.(.bX).P.P.R.Y.T.l.l.L.R._.J   - L _ ",
"3 4 z x x x T T x n V R V y ) 3     1       @ 5 W l - @ 1 5 K ` O.z.~.nXmX(.~.z.I.L.P.P.z.T._.rX~.I.L.I.L.L.( 5 5 L L.l   l ) I.",
"3 3 y h h h x z x j n T n = W l.    @   @ O @ L K 3     o - 1 3 l ) ~.nXnX(.U.O.O.) ` ` ` P.~.~.l.K K L l 5 5 @ 1 5 K 5 & W l.l.",
"4 3 4 y y h z z x z x x z   H /.J     O O   3 K G -     o o @ @ 1 J T._.).P.P L 0 0 2 2 5 ( l.` G 3 1 < @ # # # O & 5 5 l _ P.z.",
"4 4 y h h z x x x x T T J   - l.I.-   @   O 5 K 1 o         O @ & l >.I.` G $ $ o $ $ @ @ G W H 3 @ @ O @ @ O @ O @ 3 L ` l.P.z.",
"l l h z x x x T I I J W I   o 4 H l 5 @   > G G @ X           @ & K ( K 3 & O   # # # @ @ 5 L F 1 @ O O X O     O o - ` T.T.U.z.",
"z z z J I n n R R T T W l   o 3 o - 3 5 O 1 G 3 @ O         O @ 1 / ( G & X X   O     O @ 5 H u < @ @ O       o o   o l.>X).~.z.",
"H z z x T n n R E E ! Q l     - X   X L 1 1 5 @             O @ 1 L L 1 o             O 1 G K l @ o O         # o . . ~ rXbX).x.",
"l h y z Y n n Z E V T z l 1 @ - X     K L F 6 @             O @ , 2 5 o o               @ 0 L 0 1 o O           . . . h ).tX>Xx."
};
