/* XPM */
static char * enemy_xpm[] = {
"64 64 132 2",
"  	c #00FFFFFF",
". 	c #000000",
"+ 	c #FFC20E",
"@ 	c #AF8409",
"# 	c #AF8509",
"$ 	c #B08509",
"% 	c #B18609",
"& 	c #070500",
"* 	c #6B5104",
"= 	c #685004",
"- 	c #6B5205",
"; 	c #6F5405",
"> 	c #735605",
", 	c #765A05",
"' 	c #765A06",
") 	c #785B06",
"! 	c #7B5D06",
"~ 	c #0B0901",
"{ 	c #201A05",
"] 	c #352A0B",
"^ 	c #3A3110",
"/ 	c #3D3012",
"( 	c #221D0B",
"_ 	c #1B1606",
": 	c #131006",
"< 	c #0D0B04",
"[ 	c #060501",
"} 	c #010000",
"| 	c #0A0903",
"1 	c #222011",
"2 	c #413B27",
"3 	c #584E36",
"4 	c #605439",
"5 	c #60543B",
"6 	c #5F5139",
"7 	c #564B34",
"8 	c #211C14",
"9 	c #060502",
"0 	c #181612",
"a 	c #414130",
"b 	c #7A7256",
"c 	c #9E916D",
"d 	c #AB9774",
"e 	c #AE9975",
"f 	c #AE9A76",
"g 	c #B09C77",
"h 	c #A59673",
"i 	c #968F6D",
"j 	c #1D1D15",
"k 	c #010101",
"l 	c #2F2F23",
"m 	c #726F52",
"n 	c #B2A57C",
"o 	c #DAC495",
"p 	c #E1C396",
"q 	c #E2C397",
"r 	c #E1C497",
"s 	c #D2BE92",
"t 	c #B1A57E",
"u 	c #474434",
"v 	c #060605",
"w 	c #444333",
"x 	c #9F9C75",
"y 	c #D5C898",
"z 	c #EFDDA9",
"A 	c #EBD6A3",
"B 	c #E4D09F",
"C 	c #E5D09F",
"D 	c #EBD6A4",
"E 	c #E8D8A5",
"F 	c #CBC194",
"G 	c #B9B488",
"H 	c #12120B",
"I 	c #403D30",
"J 	c #A29F78",
"K 	c #CAC494",
"L 	c #DED3A1",
"M 	c #D4C999",
"N 	c #CCBF92",
"O 	c #D5CA99",
"P 	c #D9CF9D",
"Q 	c #C6BD90",
"R 	c #BCB88A",
"S 	c #0F0F0B",
"T 	c #6C694D",
"U 	c #AFAA7F",
"V 	c #C1BC8E",
"W 	c #B9B68A",
"X 	c #B0AB82",
"Y 	c #B0AC83",
"Z 	c #BAB68A",
"` 	c #BBB78A",
" .	c #B0AD82",
"..	c #474532",
"+.	c #383729",
"@.	c #757356",
"#.	c #AEAB81",
"$.	c #B1AD83",
"%.	c #AFAA81",
"&.	c #B2AE84",
"*.	c #ABA67E",
"=.	c #66644B",
"-.	c #201F16",
";.	c #13120E",
">.	c #5D5B44",
",.	c #6B684E",
"'.	c #B6B186",
").	c #B1AC81",
"!.	c #B9B589",
"~.	c #6A674E",
"{.	c #615F47",
"].	c #090907",
"^.	c #020201",
"/.	c #524F3C",
"(.	c #504F3B",
"_.	c #2A271D",
":.	c #353427",
"<.	c #3D3C2D",
"[.	c #3C392B",
"}.	c #4D4B39",
"|.	c #55533F",
"1.	c #54523D",
"2.	c #53513D",
"3.	c #53523D",
"4.	c #54523E",
"5.	c #7B785B",
"6.	c #A41319",
"7.	c #ED1C24",
"8.	c #AA9E6C",
"9.	c #FFF9BD",
"0.	c #720D11",
"a.	c #F5E49C",
"                                                                                                                                ",
"                                                                                                                                ",
"                                                                                                                                ",
"                                                  . . . . . . . . . . . . .                                                     ",
"                                                  . + + + + + + + + + + + .                                                     ",
"                                                  . + + + + + + + + + + + .                                                     ",
"                                                  . @ @ # $ % % % % % % % .                                                     ",
"                                                  & * = - ; > , ' ) ) ! ! .                                                     ",
"                                              . . ~ { ] ^ / ( _ : < < [ } . . .                                                 ",
"                                                  | 1 2 3 4 5 6 7 2 2 8 9 .                           . . . . .                 ",
"                                                  0 a b c d e f g h h i j k                         . . . . . . . .             ",
"                                                  l m n o p q r r s s t u v                         . . . . . . . . .           ",
"                                                  w x y z A B C D E E F G H                         . . . . . . . . .           ",
"                                                  I J K L M N N O P P Q R S                         . . . . . . . . . .         ",
"                                                    T U V W X Y Z ` `  ...                        . . . . . . . . . . .         ",
"                                                    +.@.#.$.%.%.&.*.*.=.-.                      . . . . . . . . . . . .         ",
"                                                    ;.>.,.'.).$.!.~.~.{.].                    . . . . .       . . . . . .       ",
"                                                    ;.>.,.'.).$.!.~.~.{.].                    . . . .         . . . . . .       ",
"                                                    ^./.(._.:.<.[.}.}.(.k                   . . . .             . . . . .       ",
"                                                . . . |.|.|.1.2.3.4.4.5.. . .             . . . .                 . . . .       ",
"                                      . . . . . . % . $.5.5.5.5.5.5.5.$.. % . . . . . . . . . .                   . . . .       ",
"                                    . . % % . . % % . $.$.5.5.5.5.$.$.$.. % % . . % % . . . .                       . . .       ",
"                                  . . % % . . % 6.% % . $.$.$.$.$.$.$.. % % % % . . . . . .                         . . .       ",
"                                . . ! % % % % % % 6.% % . . $.$.. . . % % % % % % . . . . . .                         . .       ",
"                                . % % % % % % % % % % % % . . . . % % % % % % % . . . . % % .                         . .       ",
"                                . % % + + + + + + % % % % % . . % % % % . % + . . . . + 6.% .                         7..       ",
"                                . % + + + + + . + + + % % % % % % % % % + + . . . . + + + % .                         7.7.      ",
"                                . + + + + + + . + + . . . % . % % . . % . . . . . + + + + + .                         7.7.      ",
"                                . + + + + + + . + + . + + + . + + . . + . . . . + + + + + + .                                   ",
"                                . + + + + + + . + + . + + + . . . . . . . . . . + + + + + + .                           7.      ",
"                                . + + + + + + . + + . + + + . + + . . . . . + . + + + + + + .                                   ",
"                                . + + + 7.7.7.. + + . . . + . + . . . . . + + . + + + + + + .                                   ",
"                                . + + + 7.7.7.. + + + + + + + . . . . . + + + . + + + + + + .                           7.      ",
"                                . + + + + + 7.. + . . + + . . . . . . . . . + . + + + + + + .                                   ",
"                                . + + + + + + . + . + . . . . . . . + . + . + . + + + + 7.7..                                   ",
"                                . + + + + + + . + . . . . . . . . + + . . . + . + + + + 7.7..                                   ",
"                                . + + + + + + . + . + . . . . . . + + . + + + . + + + + 7.7..                                   ",
"                                . + + + + + + . + . . . . . . + . + + . + + + . + + + + 7.7..                           7.      ",
"                                . + + + + + + . + . . . . . + + + + + + + + + . + + + + + 7..                           7.      ",
"                                . + + + + + + . . . . . . + + + + + + + + + + . + + + + + + .                                   ",
"                                . + + + + + + . . . . . + + + + + + + + + + + . + + + + + + .                                   ",
"                                . . . . . . . . . . . . . . . . . . . . . . . . . . . . . . .                                   ",
"                                  . $.5.|.8.8.. . . ! ! ! ! ! ! ! ! ! ! ! ! ! ! . 5.5.$.9..                                     ",
"                                  . 6.0.8.8.a.a.. % % % % % % % % % % % % % % % . 5.$.9.9..                                     ",
"                                  . 8.8.a.a.a.a.+ + + + + + + + + + + + + + + + . $.9.9.. .                                     ",
"                                    . a.a.a.a.+ + + + + + + + + + + + + + + + + . 9.9.. .                                       ",
"                                  . . . a.a.. + + + + + + + + + + + + + + + + + . . . .                                         ",
"                                . . . . .   . 7.7.+ + + + + + + + + + + + + + + .                                               ",
"                              . . . .       . 7.7.+ + + + + + + + + + + + + + + .                                               ",
"                            . . . .         . 7.7.+ + + + + . . + + + + + 7.7.+ .                                               ",
"                          . . . .           . 7.+ + + + + + . . + + + + + + 7.+ .                                               ",
"                        . . . .             . + + + + + + + . . + + + + + + + + .                                               ",
"                        . .                 . + + + + + + + . . + + + + + + + + .                                               ",
"                                            . + + + + + + + . . + + + + + + + + .                                               ",
"                                            . + + + + + + + . . + + + + + + + + .                                               ",
"                                            . + + + + + + + . . + + + + + + + + .                                               ",
"                                            . + + + + + + + . . + + + + + + + + .                                               ",
"                                            . % % % % % % % . . % % % % % % % % .                                               ",
"                                            . . . . . . . . . . . . . . . . . . .                                               ",
"                                            . . . . . . . . . . . . . . . . . . .                                               ",
"                                            . . . . . . . . . . . . . . . . . . .                                               ",
"                                            . . . . . . . . . . . . . . . . . . .                                               ",
"                                            . . . . . . . . . . . . . . . . . . .                                               ",
"                                                                                                                                "};
