/* XPM */
static char * gun_hand_1_xpm[] = {
"64 64 6 1",
" 	c #00FFFFFF",
".	c #000000",
"+	c #F5E49C",
"@	c #AA9E6C",
"#	c #766D4B",
"$	c #524B34",
"                                                                ",
"                                                                ",
"                                                                ",
"                                                                ",
"                                                                ",
"                                                                ",
"                                                                ",
"                                                                ",
"                                                                ",
"                                                                ",
"                                                                ",
"                                                                ",
"                                                                ",
"                                                                ",
"                                                                ",
"                                                                ",
"                                                                ",
"                                                                ",
"                                                                ",
"                                                                ",
"                                                                ",
"                                                                ",
"                                                                ",
"                                                                ",
"                                                                ",
"                                                                ",
"                                                                ",
"                                                                ",
"                                                                ",
"                                                                ",
"                                                                ",
"                                                                ",
"                                                                ",
"                                                                ",
"                                                                ",
"                                                                ",
"                                                                ",
"                                              ...               ",
"                                             ..+..              ",
"                                            ..++@.              ",
"                                          ....++@.              ",
"                                         ..++.++@.              ",
"                                         .+++.++@.              ",
"                                         .+++..+@@.   ....      ",
"                                         ..+++.@@@. ...++.      ",
"                                          .+++.@@@. ..+++.      ",
"                                          .+++.@@@@..++++..     ",
"                                          ..++..@@@@.+++++.     ",
"                                           .++@.@@@@.+++++.     ",
"                                       .....++@.@@@.+++++.      ",
"                                      ..+++.++@.@@#.+++++.      ",
"                                     ..++++.++@@@@#.+++++.      ",
"                                    ...++++...@@@@#.+++++.      ",
"                                   .++.+++++..@@@@#.+++++.      ",
"                                   .++.+++++++.@@@#.+++++.      ",
"                                   .++..++++++..@#.+++++.       ",
"                                   .+++..++++++.##.+++++.       ",
"                                   .++++.++++++.##.+++++.       ",
"                                   .+++++.+++++.#$.+++++.       ",
"                                   ..++++..+++..$$.+++++.       ",
"                                    ..+++......$$.++++++.       ",
"                                    ......###$$$$.+++++.        ",
"                                    .+@@@@@@@##$$$@++++.        ",
"                                     .++++@@@@##$$@+++.         "};
