/* XPM */
static char * heal_2_xpm[] = {
"64 64 5 1",
" 	c #00FFFFFF",
".	c #000000",
"+	c #95E6AD",
"@	c #00F24D",
"#	c #51E07E",
"                  ............................                  ",
"                  ..+++@@@@@@@@@@@@@@@@@@+++..                  ",
"                  ..++@@@@@@@@@@@@@@@@@@@+++..                  ",
"                  ..++@@@@@@@@@@@@@@@@@@@@@+..                  ",
"                  ..+@@@@@@@@@@@@@@@@@@@@@@@..                  ",
"                  ..@@@@@@@@@@@@@@@@@@@@@@@@..                  ",
"                  ..@@@@@@@@@@@@@@@@@@@@@@@@..                  ",
"                  ..@@@@@@@@@@@@@@@@@@@@@@@@..                  ",
"                  ..@@@@@@@@@@@@@@@@@@@@@@@@..                  ",
"                  ..@@@@@@@@@@@@@@@@@@@@@@@@..                  ",
"                  ..@@@@@@@@@@@@@@@@@@@@@@@@..                  ",
"                  ..@@@@@@@@@@@@@@@@@@@@@@@@..                  ",
"                  ..@@@@@@@@@@@@@@@@@@@@@@@@..                  ",
"                  ..@@@@@@@@@@@@@@@@@@@@@@@@..                  ",
"                  ..@@@@@@@@@@@@@@@@@@@@@@@@..                  ",
"                  ..@@@@@@@@@@@@@@@@@@@@@@@@..                  ",
"                  ..@@@@@@@@@@@@@@@@@@@@@@@@..                  ",
"                  ..@@@@@@@@@@@@@@@@@@@@@@@@..                  ",
"                  ..@@@@@@@@@@@@@@@@@@@@@@@@..                  ",
"                  ..@@@@@@@@@@@@@@@@@@@@@@@@..                  ",
"                  ..@@@@@@@@@@@@@@@@@@@@@@@@..                  ",
"                  ..@@@@@@@@@@@@@@@@@@@@@@@@..                  ",
"                  ..@@@@@@@@@@@@@@@@@@@@@@@@..                  ",
"                  ............................                  ",
"                  ............................                  ",
"                  ..+##@@@@@@@@@@@@@@@@@@##+..                  ",
"                  ..+#@@@@@@@@@@@@@@@@@@@@#+..                  ",
"                  ..#@@@@@@@@@@@@@@@@@@@@@@#..                  ",
"                  ..@@@@@@@@@@@@@@@@@@@@@@@@..                  ",
"                  ..@@@@@@@@@@@@@@@@@@@@@@@@..                  ",
"                  ..@@@@@@@@@@@@@@@@@@@@@@@@..                  ",
"                  ..@@@@@@@@@@@@@@@@@@@@@@@@..                  ",
"                  ..@@@@@@@@@@@@@@@@@@@@@@@@..                  ",
"                  ..@@@@@@@@@@@@@@@@@@@@@@@@..                  ",
"                  ..@@@@@@@@@@@@@@@@@@@@@@@@..                  ",
"                  ..@@@@@@@@@@@@@@@@@@@@@@@@..                  ",
"                  ..#@@@@@@@@@@@@@@@@@@@@@@#..                  ",
"                  ..##@@@@@@@@@@@@@@@@@@@@#+..                  ",
"                  ..+++@@@@@@@@@@@@@@@@@@#++..                  ",
"                  ............................                  ",
"                  ............................                  ",
"                  ..@@@@@@@@@@@@@@@@@@@@@@@@..                  ",
"                  ..@@@@@@@@@@@@@@@@@@@@@@@@..                  ",
"                  ..@@@@@@@@@@@@@@@@@@@@@@@@..                  ",
"                  ..@@@@@@@@@@@@@@@@@@@@@@@@..                  ",
"                  ..@@@@@@@@@@@@@@@@@@@@@@@@..                  ",
"                  ..@@@@@@@@@@@@@@@@@@@@@@@@..                  ",
"                  ..@@@@@@@@@@@@@@@@@@@@@@@@..                  ",
"                  ..@@@@@@@@@@@@@@@@@@@@@@@@..                  ",
"                  ..@@@@@@@@@@@@@@@@@@@@@@@@..                  ",
"                  ..@@@@@@@@@@@@@@@@@@@@@@@@..                  ",
"                  ..@@@@@@@@@@@@@@@@@@@@@@@@..                  ",
"                  ..@@@@@@@@@@@@@@@@@@@@@@@@..                  ",
"                  ..@@@@@@@@@@@@@@@@@@@@@@@@..                  ",
"                  ..@@@@@@@@@@@@@@@@@@@@@@@@..                  ",
"                  ..@@@@@@@@@@@@@@@@@@@@@@@@..                  ",
"                  ..@@@@@@@@@@@@@@@@@@@@@@@@..                  ",
"                  ..+@@@@@@@@@@@@@@@@@@@@@@@..                  ",
"                  ..+@@@@@@@@@@@@@@@@@@@@@@@..                  ",
"                  ..+@@@@@@@@@@@@@@@@@@@@@@@..                  ",
"                  ..+@@@@@@@@@@@@@@@@@@@@@@@..                  ",
"                  ..+@@@@@@@@@@@@@@@@@@@@@@@..                  ",
"                  ..+@@@@@@@@@@@@@@@@@@@@@@@..                  ",
"                  ............................                  "};
