/* XPM */
static char * heal_3_xpm[] = {
"64 64 6 1",
" 	c #00FFFFFF",
".	c #000000",
"+	c #56E383",
"@	c #66CC86",
"#	c #00F24D",
"$	c #75D986",
"                  ............................                  ",
"                  ..+@######################..                  ",
"                  ..@#######################..                  ",
"                  ..########################..                  ",
"                  ..########################..                  ",
"                  ..########################..                  ",
"                  ..########################..                  ",
"                  ..########################..                  ",
"                  ..########################..                  ",
"                  ..########################..                  ",
"                  ..########################..                  ",
"                  ..########################..                  ",
"                  ..########################..                  ",
"                  ..########################..                  ",
"                  ..########################..                  ",
"                  ..########################..                  ",
"                  ..########################..                  ",
"                  ..########################..                  ",
"                  ..########################..                  ",
"                  ..########################..                  ",
"                  ..########################..                  ",
"                  ..########################..                  ",
"                  ..########################..                  ",
"....................########################....................",
"....................########################....................",
".@############################################################@.",
".@############################################################@.",
".@############################################################@.",
".@############################################################@.",
".$############################################################$.",
".$############################################################$.",
".$############################################################$.",
".@############################################################$.",
".@############################################################@.",
".@############################################################@.",
".@############################################################@.",
".$############################################################@.",
".$############################################################$.",
".$############################################################$.",
"....................########################....................",
"....................########################....................",
"                  ..########################..                  ",
"                  ..########################..                  ",
"                  ..###...############...###..                  ",
"                  ..######...######...######..                  ",
"                  ..########..####..########..                  ",
"                  ..##########.##.##########..                  ",
"                  ..##########....##########..                  ",
"                  ..###########..###########..                  ",
"                  ..###########..###########..                  ",
"                  ..###########..###########..                  ",
"                  ..##########....##########..                  ",
"                  ..##########.##.##########..                  ",
"                  ..#..........##..........#..                  ",
"                  ..########################..                  ",
"                  ..########################..                  ",
"                  ..########################..                  ",
"                  ..########################..                  ",
"                  ..########################..                  ",
"                  ..########################..                  ",
"                  ..#######################@..                  ",
"                  ..#######################@..                  ",
"                  ..######################@+..                  ",
"                  ............................                  "};
