/* XPM */
static char * heal_1_xpm[] = {
"64 64 9 1",
" 	c #00FFFFFF",
".	c #000000",
"+	c #56E383",
"@	c #66CC86",
"#	c #00F24D",
"$	c #75D986",
"%	c #CCB6CC",
"&	c #D4A1D6",
"*	c #00B8F0",
"                  ............................                  ",
"                  ..+@######################..                  ",
"                  ..@#######################..                  ",
"                  ..########################..                  ",
"                  ..########################..                  ",
"                  ..########################..                  ",
"                  ..########################..                  ",
"                  ..########################..                  ",
"                  ..########################..                  ",
"                  ..########################..                  ",
"                  ..########################..                  ",
"                  ..########################..                  ",
"                  ..########################..                  ",
"                  ..########################..                  ",
"                  ..########################..                  ",
"                  ..########################..                  ",
"                  ..########################..                  ",
"                  ..########################..                  ",
"                  ..########################..                  ",
"                  ..########################..                  ",
"                  ..########################..                  ",
"                  ..########################..                  ",
"                  ..########################..                  ",
"....................########################....................",
"....................########################....................",
".@############################################################@.",
".@############################################################@.",
".@###################..###################.###################@.",
".@###################..#######################################@.",
".$##############%&&&########################&&&%##############$.",
".$############################################################$.",
".$############################################################$.",
".@############################################################$.",
".@###############.############################.###############@.",
".@################.##########################.################@.",
".@#################.########################.#################@.",
".$##################.######################.##################@.",
".$###################......................###################$.",
".$##################################*#########################$.",
"....................################*#######....................",
"....................#################*######....................",
"                  ..#################*######..                  ",
"                  ..#################*######..                  ",
"                  ..#################*######..                  ",
"                  ..#################*######..                  ",
"                  ..#################*######..                  ",
"                  ..#################*######..                  ",
"                  ..#################*######..                  ",
"                  ..#################*######..                  ",
"                  ..#################*######..                  ",
"                  ..#################*######..                  ",
"                  ..#################*######..                  ",
"                  ..#################*######..                  ",
"                  ..########################..                  ",
"                  ..########################..                  ",
"                  ..########################..                  ",
"                  ..########################..                  ",
"                  ..########################..                  ",
"                  ..########################..                  ",
"                  ..########################..                  ",
"                  ..#######################@..                  ",
"                  ..#######################@..                  ",
"                  ..######################@+..                  ",
"                  ............................                  "};
