/* XPM */
static char * leave_button_xpm[] = {
"128 128 18 1",
" 	c #00FFFFFF",
".	c #465162",
"+	c #424C5D",
"@	c #6B7684",
"#	c #93A0AF",
"$	c #6F7B89",
"%	c #384152",
"&	c #FAFAFB",
"*	c #56616E",
"=	c #808C9B",
"-	c #23B6FC",
";	c #06AAFA",
">	c #0DADF8",
",	c #1CB1FA",
"'	c #0BA5EF",
")	c #7A8593",
"!	c #657080",
"~	c #5D6878",
"                                                                                                                                ",
"                                                                                                                                ",
"                                                                                                                                ",
"                                                                                                                                ",
"                                                                                                                                ",
"                                                                                                                                ",
"                                                                                                                                ",
"                                                                                                                                ",
"                                                                                                                                ",
"                                                                                                                                ",
"                                                                                                                                ",
"                                                                                                                                ",
"                                                                                                                                ",
"                                                                                                                                ",
"                                                                                                                                ",
"                                                                                                                                ",
"                                                                                                                                ",
"                                                                                                                                ",
"                                                                                                                                ",
"                                                                                                                                ",
"                                                                                                                                ",
"                                                                                                                                ",
"                                                                                                                                ",
"                                                                                                                                ",
"                                                                                                                                ",
"                                                                                                                                ",
"                                                                                                                                ",
"                                                                                                                                ",
"                                                                                                                                ",
"                                                                                                                                ",
"                                                                                                                                ",
"                                                                                                                                ",
"                                                                                                                                ",
"                                                                                                                                ",
"                                                                                                                                ",
"                                                                                                                                ",
"                                                                                                                                ",
"                                                                                                                                ",
"                                                                                                                                ",
"                                                                                                                                ",
"                                                                                                                                ",
"                                                                                                                                ",
"                                                                                                                                ",
"                                                                                                                                ",
"            ..++..++++++....+++.+++++++++.+++++++.+++++++++++++++++++++++++++.+++++++++++++++++++++++++++++++.++++++            ",
"            ..+.+++++++++.+.+++++++++++++.++++++++++++++++++++++++++++++++++++++++++++++++++++++++++++++++++++++++++            ",
"          ..@@####################################################################################################@@..          ",
"          ..@@####################################################################################################@@+.          ",
"        ..@@########################################################################################################@@..        ",
"        ..@@########################################################################################################@$.+        ",
"      %%@@########&&&&&&&&&&&&&&&&&&&&&&&&&&&&&&&&&&&&&&&&&&&&&&&&&&&&&&&&&&&&&&&&&&&&&&&&&&&&&&&&&&&&&&&&&&&&########@@%%      ",
"      %%@@########&&&&&&&&&&&&&&&&&&&&&&&&&&&&&&&&&&&&&&&&&&&&&&&&&&&&&&&&&&&&&&&&&&&&&&&&&&&&&&&&&&&&&&&&&&&&########@@%%      ",
"      %%################################################################################################################%%      ",
"      %%################################################################################################################%%      ",
"      %%****########################################################################################################****%%      ",
"      %%****########################################################################################################****%%      ",
"      %%****##########==.......#######.............####...........####.......##........#..............##############****%%      ",
"      %%****##########==.......#####...............####...........####.................#...............#############****%%      ",
"      %%****##########..-----..#####..-----------..#...-----------...#..-----...-----..#..-----------.%#############****%%      ",
"      %%****##########..-----..#####..----;>----,.+#.%%,;;;-------..+#..-----..%-----..#%%-----------%%#############****%%      ",
"      %%****##########..-----..#####.%----;;;;;;;%%#%%;;;;;;;>;;;-,..#..-----%%%-;;;;%%#%%;;>;;;,---,%%#############****%%      ",
"      %%****##########..-----..#####%%;;;;;;;;;;;%%#%%;;;;;;;;;;;;;%%#..-----%%%;;;;;%%#%%;;;;;;;;,,>+%#############****%%      ",
"      %%****##########..-----.%#####%%;;;;;;%%%%%%##%%;;;;>++%;;;;;%%#..-----%%%;;;;;%%#%%;;;;;;%%%%%%##############****%%      ",
"      %%****##########..--;;'%%#####%%;;;;;;%%%%%%.#%%;;;;;%+%;;;;;%%#..-----%%%;;;;;%%#%%;;;;;;%%%%%%##############****%%      ",
"      %%****##########..;;;;;%%#####%%;;;;;;;;;;%%##%%;;;;;%%%;;;;;%%#%%;;;;-%%%;;;;;%%@%%;;;;;;;;;;%%##############****%%      ",
"      %%****##########.+;;;;;%%#####%%;;;;;;;;;;%%#)%%;;;;;;;;;;;;;%%$%%;;;;;%%%;;;;;%%@%%;;;;;;;;;;%%##############****%%      ",
"      %%****##########+%;;;;;%%%+###%%;;;;;;;;;;!!#@%%;;;;;;;;;;;;;%%@%%;;;;;;;;;;;;;%%@%%;;;;;;;;;;%~~#############****%%      ",
"      %%****$$####$$$$%%;;;;;%%%+~~#%%;;;;;;%%%%!!@@%%;;;;;;;;;;;;;%%@%%';;;;;;;;;;;;%%@%%;;;;;;%%%%%%%$$$$$$$####$$****%%      ",
"      %%****$$####$$$$%%;;;;;;;;;%%@%%;;;;;;%%%%%%%@%%;;;;;%%%;;;;;%%@$%%;;;;;;;;;;;%%$$%%;;;;;;%%%%%%%$$$$$$$$$$$$$****%%      ",
"      %%****$$$$$$$$$$%%;;;;;;;;;%%@%%;;;;;;;;;;'%%@%%;;;;;%%%;;;;;%%$$%%;;;;;;;;;;;%%$$%%;;;;;;;;;;'%%$$$$$$$$$$$$$****%%      ",
"      %%****$$$$$$$$$$%%;;;;;;;;;%%@%%>;;;;;;;;;;%%@%%;;;;;%%%;;;;;%%$$$$%%;;;;;;;%%$$$$%%;;;;;;;;;;;%%$$$$$$$$$$$$$****%%      ",
"      %%****$$$$$$$$$$%%>;;;;;;;;%%$%%>;;;;;;;;;'%%$%%>;;;;%%%;;;;;%%$$$$%%;;;;;;>%%$$$$%%>;;;;;;;;;;%%$$$$$$$$$$$$$****%%      ",
"      %%****$$$$$$$$$$%%%%%%%%%%%%%$%%%%%%%%%%%%%%%$%%%%%%%$$%%%%%%%%$$$$$$%%%%%%%$$$$$$%%%%%%%%%%%%%%$$$$$$$$$$$$$$****%%      ",
"      %%****$$$$$$$$$$%%%%%%%%%%%%%$%%%%%%%%%%%%%%%$%%%%%%%$$%%%%%%%%$$$$$$%%%%%%%$$$$$$%%%%%%%%%%%%%%$$$$$$$$$$$$$$****%%      ",
"      %%******$$$$$$$$$$$$$$$$$$$$$$$$$$$$$$$$$$$$$$$$$$$$$$$$$$$$$$$$$$$$$$$$$$$$$$$$$$$$$$$$$$$$$$$$$$$$$$$$$$$$$$****%%      ",
"      %%******$$$$$$$$$$$$$$$$$$$$$$$$$$$$$$$$$$$$$$$$$$$$$$$$$$$$$$$$$$$$$$$$$$$$$$$$$$$$$$$$$$$$$$$$$$$$$$$$$$$$$$****%%      ",
"      %%******$$$$$$$$$$$$$$$$$$$$$$$$$$$$$$$$$$$$$$$$$$$$$$$$$$$$$$$$$$$$$$$$$$$$$$$$$$$$$$$$$$$$$$$$$$$$$$$$$$********%%      ",
"      %%******$$$$$$$$$$$$$$$$$$$$$$$$$$$$$$$$$$$$$$$$$$$$$$$$$$$$$$$$$$$$$$$$$$$$$$$$$$$$$$$$$$$$$$$$$$$$$$$$$$********%%      ",
"        %%************************************************************************************************************%%        ",
"        %%************************************************************************************************************%%        ",
"          %%********************************************************************************************************%%          ",
"          %%********************************************************************************************************%%          ",
"            %%%%%%%%%%%%%%%%%%%%%%%%%%%%%%%%%%%%%%%%%%%%%%%%%%%%%%%%%%%%%%%%%%%%%%%%%%%%%%%%%%%%%%%%%%%%%%%%%%%%%%%%            ",
"            %%%%%%%%%%%%%%%%%%%%%%%%%%%%%%%%%%%%%%%%%%%%%%%%%%%%%%%%%%%%%%%%%%%%%%%%%%%%%%%%%%%%%%%%%%%%%%%%%%%%%%%%            ",
"                                                                                                                                ",
"                                                                                                                                ",
"                                                                                                                                ",
"                                                                                                                                ",
"                                                                                                                                ",
"                                                                                                                                ",
"                                                                                                                                ",
"                                                                                                                                ",
"                                                                                                                                ",
"                                                                                                                                ",
"                                                                                                                                ",
"                                                                                                                                ",
"                                                                                                                                ",
"                                                                                                                                ",
"                                                                                                                                ",
"                                                                                                                                ",
"                                                                                                                                ",
"                                                                                                                                ",
"                                                                                                                                ",
"                                                                                                                                ",
"                                                                                                                                ",
"                                                                                                                                ",
"                                                                                                                                ",
"                                                                                                                                ",
"                                                                                                                                ",
"                                                                                                                                ",
"                                                                                                                                ",
"                                                                                                                                ",
"                                                                                                                                ",
"                                                                                                                                ",
"                                                                                                                                ",
"                                                                                                                                ",
"                                                                                                                                ",
"                                                                                                                                ",
"                                                                                                                                ",
"                                                                                                                                ",
"                                                                                                                                ",
"                                                                                                                                ",
"                                                                                                                                ",
"                                                                                                                                ",
"                                                                                                                                ",
"                                                                                                                                ",
"                                                                                                                                ",
"                                                                                                                                "};
