/* XPM */
static char * mask_xpm[] = {
"64 64 79 1",
" 	c #00FFFFFF",
".	c #1FAE4A",
"+	c #21B149",
"@	c #20AC49",
"#	c #20AC4C",
"$	c #23AF4A",
"%	c #28AE47",
"&	c #20AF49",
"*	c #1FAF4A",
"=	c #22AF4B",
"-	c #23B04B",
";	c #23AF4C",
">	c #1FAE4B",
",	c #1FAE49",
"'	c #22AE49",
")	c #21AB4A",
"!	c #24AE4D",
"~	c #20AF4C",
"{	c #21AC4B",
"]	c #1EB34D",
"^	c #23B24A",
"/	c #20AF4D",
"(	c #1FB24A",
"_	c #23B24D",
":	c #21B04C",
"<	c #1FAD4B",
"[	c #23B44D",
"}	c #25B149",
"|	c #22AF49",
"1	c #22AF4C",
"2	c #22B04C",
"3	c #21AE49",
"4	c #24B04D",
"5	c #20B24D",
"6	c #27AE47",
"7	c #23B24B",
"8	c #1FB04A",
"9	c #22B14B",
"0	c #25B049",
"a	c #23AF4D",
"b	c #24B249",
"c	c #20AF47",
"d	c #22B14A",
"e	c #23B249",
"f	c #20B149",
"g	c #21AC4C",
"h	c #22B24A",
"i	c #25AC4C",
"j	c #1FB24B",
"k	c #25B44C",
"l	c #24AE47",
"m	c #25B449",
"n	c #23B04A",
"o	c #21B14C",
"p	c #27AE4D",
"q	c #22B449",
"r	c #22AF48",
"s	c #1FAE4C",
"t	c #27B246",
"u	c #20B849",
"v	c #22AD4B",
"w	c #24B149",
"x	c #24B049",
"y	c #1EAD47",
"z	c #1EB049",
"A	c #1EAF49",
"B	c #23B048",
"C	c #24B04C",
"D	c #1EAF4A",
"E	c #21AE4C",
"F	c #22AF4A",
"G	c #20AE49",
"H	c #21B24A",
"I	c #23AF4B",
"J	c #22B04B",
"K	c #22B148",
"L	c #24B04B",
"M	c #21AD4C",
"N	c #1FB14E",
".....+@@#@@@@@@#@@@@                         $% @@@@@@&@@&*.....",
"....&&@@@@@@@##@@##=%                        - ;#@@@@#@&@>,*...*",
"..*')#@@@@###@@###!  $$                       -~{@@####@]^^/(*.*",
"*_:##@@@##@@##~#<%%[}[                        --|1@#@@@#@@((****",
"('^*23##@@##&@@4&@&$                            -@&@@@#@##&^5(**",
",](^&&@####@67&@[                                $%4~@@##@#]&^5*",
"&&@@&@@#@869@&$                                   [$0|@@@##@#]]a",
"&@@@@&b@c1@@[                                      $de&@@@@##@#'",
"@@@#@fdd$                                            d{gh@@@@##@",
"@@#@#d                                                $9ei@@@#@#",
"@#@#{                                                   dj#@@@##",
"#@#7%                                                     1#@@#@",
"##k%[[                                                     @#@@#",
"@#l[m[                                                      #@@#",
"#=[m[                                                       @@&@",
"n[m[                                                         #@&",
"9m$                                                           #&",
"fd                                                            @@",
"[$                                                            $ ",
"[                                                              [",
"                                                               $",
"                                                               [",
"                                                                ",
"                                                                ",
"                                                                ",
"                                                                ",
"                                                                ",
"                                                                ",
"                                                                ",
"                                                                ",
"                                                               %",
"%                                                            % %",
"% %                                                         %l e",
"7%%%                                                        %o 7",
"[e l                                                        eo #",
"#mmll                                                       7=@#",
"@##[b                                                       =#@#",
"@###l%                                                     bp##@",
"@#@fe                                                      7@#@@",
"@#@#@%                                                    b&@#@@",
"@@&#@b                                                   %&&@@@#",
"&@&&@&                                                   @9&#@@#",
"&&&&&@%                                                  &##@@#@",
"&&&&&&&                                                 @&&#@@##",
"&#@&@ffl                                                &@@#@#@@",
"###@##@qr                                              b7&#@@##&",
"s###@##ntl%                                            %u#@@@#,,",
",)s#####vrwx%%                                        %(0#@@sy&#",
"z@#s###@##rr%                                        l&@@@@y,sAA",
"z2@,)###@&#B{C %%                                   l@@@@@))D2##",
".~^@,##@####%%                                    %@@@#@@@#2z&..",
"*.^2,)@####@@@Ce%%                               % #@@&@@#3#@..*",
".*.^+@@@@@@@@@@[[                                 @@@@@##@#@....",
"....E##@@@@@@@@@[                                [@@@@#@##@.....",
"...&&###@@@@@@@                                 $ @@@#@##@FD...G",
"..H)#&@###@@@@%%                                  @@@@##@3@#D.IJ",
"aKAA@&@#@####L                                   @@@@@#@@@#E3K,M",
",)A23@@@@&&#Nmd}[                               0 @@@@@@@@@@@)@|",
" @@@@@@@@ @                                    $  $@@@@#@#@@@@@ ",
"   @@@@ @                                        $$<@@##@@@@    ",
"     @@@@                                            $$@@@@     ",
"                                                                ",
"                                                                ",
"                                                                "};
