/* XPM */
static char * menu_background_xpm[] = {
"128 128 23 1",
" 	c #E2FCFC",
".	c #CDEEFC",
"+	c #AACFF7",
"@	c #C6E8FC",
"#	c #B7DAF8",
"$	c #BFE1FC",
"%	c #7DABDE",
"&	c #DAF6FE",
"*	c #A3C8F4",
"=	c #89B5E5",
"-	c #5278A6",
";	c #84A8CD",
">	c #4E73A1",
",	c #5C82AF",
"'	c #658DBC",
")	c #44658C",
"!	c #213859",
"~	c #38567E",
"{	c #6A92C4",
"]	c #263E61",
"^	c #8DAFD3",
"/	c #7C9FCE",
"(	c #334F71",
"                                                                                                                                ",
"                                                                                                                                ",
"                                                                                                                                ",
"                                                                                                                                ",
"                                                                                                                                ",
"                                                                                                                                ",
"                                                                                                                                ",
"                                                                                                                                ",
"                                                                                                                                ",
"                                                                                                                                ",
"                                                                                                                                ",
"                                                                                                                                ",
"                                                                                                                                ",
"                                                                                                                                ",
"                                                                                                                                ",
"                                                                                                                                ",
"                                                                                                                                ",
"                                                                                                                                ",
"                                                                                                                                ",
"                                                                                                                                ",
"                                                                            ..                                                  ",
"                                                                          .....                                                 ",
"                                                                        ........                                                ",
"                                                                      .......+..                                                ",
"                                                                     .......++++.                                               ",
"                                                                    ........+++++                                               ",
"                                                                  .........@++++++                                              ",
"                                                                 ..........+++++++                                              ",
"                                                                ...........+++++++                                              ",
"                                                            ...............++++++++                                             ",
"                                                            ...............++++++++ @                                           ",
"                                                          .........+.......++++++++  .                                          ",
"                                                         ..........+......+++++++++  ..  .                                      ",
"                                             ..          .........+.......++++++++++ +......                                    ",
"                                           ++#..        .........#+.......++++++++++    .....                                   ",
"                                          ++++....     ........+.+@......++++++++++++++  $....                                  ",
"                                          +++++....   .........+.+.......++++++++++++++++ #....                                 ",
"                                          +++++++..  ..........+++....+.+++++++++++++++++  #....                                ",
"                                          ++++++++++..........+++....$+.++++++++++++++++++..#....                               ",
"                                         +++++++++++. ........+.....++++++++++++++++++++++........         ...                  ",
"                                        +++++++++++++  +...........++++++++++++++++++++++++++.......     ......                 ",
"                                        +++++++++++++   ..........+++++.+++++++++++++++++++++++................                 ",
"                                       ++++++++++++++    ........+++++..++++++++++++++++++++++++.+............++                ",
"                                      ++++++++++++++++   +......+++++..++++++++++++++++++++++++++++++........++++               ",
"                             ..       +++++++++++++++++   ++....++..++.+++++++++++++++++++++++++++...........++++               ",
"                            ......  ..+++++++++++++++++    #$$.+...+.+.++++++++++++++++++++++++++........@...+++++              ",
"                           ..........++++++++++++++++++    $$#+...+++++++++++++++++++++++++++++.........@...+++++++             ",
"                          ...........+++++++++++++++++++      #..+++++++++++++++++++++++ ++++..........@....+++++++             ",
"                          ..........++++++++++++++++++++       ++++++++++++++++++++++++        .......@.....$++++++             ",
"                         ..........++++++++++++++++++++++       +++++++++++++++++++                .........++++++++            ",
"                        ..........++++++++++++++++++++++++   +    ++++++++++++++++                 +.......++++++++++           ",
"%%                      .........++++++++++++++++++++++++++   +   ++ .++++++++++             ++.+ +++......++++++++++           ",
"%%%%                   .........++++++++++++++++++++++++++++   +       ++++++      +        +++   +++.....++++++++++++          ",
"%%%%  %%%%%%%         ..........++++++++++++++++++++++++++++   ++       +        ++++      ++&   +++++.....++++++++++++         ",
"%%%%%%%%%%%%%%%%     .........+++++++++++++++++++++++++++++++    +        ++  ++++++      ++     +++++   &..+#..+++++++++       ",
"%%%%%%%%%%%%%%%%%    .........++++++++++++++++++++++++++++++++   +          ++++++++ +++++      +++++++++  ......++++++++       ",
"%%%%%%%%%%%%%%%%%%  @........+++++++++++++++++++++++++++++++++   ++           ++++++++         +++++++++++   ........+++++      ",
"%%%%%%%%%%%%%%%%%%%%%%%....+.+++++++++++++++++++++++++++++++++++               ++++     @+    ++++++++++++     .......+++++     ",
"%%%%%%%%%%%%%%%%%%%%%%%%...++++++++++++++++++++++++++++++++++++++      ++               +++  +++++++++++++      #.......++++    ",
"%%%%%%%%%%%%%%%%%%%%%%%%%..++++++++++++++++++++++++++++++++*+++++++   +++++             +++++++++++++++++++      $.......++++   ",
"%%%%%%%%%%%%%%%%%%%%%%%%%%+++++++++++++++++++++++++++++++++*+++++++++++++++++ ++++++++++++++++++++++++++++++      ++....  @@+   ",
"%%%%%%%%%%%%%%%%%%%%%%%%%%%%+++++++++++++++++++++++++++++++++++++++++++++++++++++++++++++++++++++++++++++++++       ++..        ",
"%%%%%%%%%%%%%%%%%%%%%%%%%%%%%++++++++++++++++++++++++++++++++++++++++++++++++++++++++++++++++++++++++++++++++&                ++",
"%%%%%%%%%%%%%%%%%%%%%%%%%%%%%%++++++++++++++++++++++++++++++++++++++++++++++++++++++++++++++++++++++++++++++++               +++",
"%%%%%%%%%%%%%%%%%%%%%%%%%%%%%%%++++++++++++++++++++++++++++++++++++++++++++++++++++++++++++++++++++++++++++++++              +++",
"%%%%%%%%%%%%%%%%%%%%%%%%%%%%%%%%%*+++++++++++++++++++++++++++*+++++++++++++++++++++++++++++++++++++++++++++++++++           ++++",
"%%%%%%%%%%%%%%%%%%%%%%%%%%%%%%%%%%%%%%+++++++++++++++++++++++*++++++++++++++++++++++++++++++++++++++++++++++++++++++++   ++$++++",
"%%%%%%%%%%%%%%%%%%%%%%%%%%%%%%%%%%%%%%%%++%%%%%%%+++++++++++++++++++++++++++++++++++++++++++++++++++++++++++++++++++++++++++++++",
"%%%%%%%%%%%%%%%%%%%%%%%%%%%%%%%%%%%%%%%%%%%%%%%%%%=+++++++++++++++++++++++++++++++++++++++++++++++++++++++++++++++++++++++++++++",
"%%%%%%%%%%%%%%%%%%%%%%%%%%%%%%%%%%%%%%%%%%%%%%%%%%%=++++++++++++++++++++++++++++++++++++++++++++++++++++++++++++++++++++++++++++",
"%%%%%%%%%%%%%%%%%%%%%%%%%%%%%%%%%%%%%%%%%%%%%%%%%%%%%+++++++++*+++++++++++++++++++++++++++++++++++++++++++++++++++++++++++++++++",
"--%%%%%%%%%%%%%%%%%%%%%%%%%%%%%%%%%%%%%%%%%%%%%%%%%%%%++++++++++++++++++++++++++++++++++++++++++++++++++++++++++++++++++++++++++",
"---%%%%%%%%%%%%%%%%%%%%%%%%%%%%%%%%%%%%%%%%%%%%%%%%%%%%+++++++++++++++++++++++++++++++++++++++++++++++++++++++++++++++++++++++--",
"----%%%%%%%%%%%%%%%%%%%%%%%%%%%%%%%%%%%%%%%%%%%%%%%%%%%%++++++++++++++++++++++++++++++++++++++++++++++++++++++++----++----------",
"------%%%%%%%%%%%%%%%%%%%%%%%%%%%%%%%%%%%%%%%%%%%%%%%%%%%++++++++++++++++++++++++++++++++++++++++++++++++++++++-----------------",
"-------%%%%%%%%%%%%%%%%%%%%%%%%%%%%%%%%%%%%%%%%%%%%%%%%%%%%++++++++++++++++++++++++++++++++++++++++++++++++---------------------",
"--------%%%%%%%%%%%%%%%%%%%%%%%%%%%%%%%%%%%%%%%%%%%%%%%%%%%*++++++++++++++++++++++++++++++++++++++++++++++----------------------",
"--------------%%%%%%%%%%%%%%%%%%%%%%%%%%%%%%%%%%%%%%%%%%%%%%+++++++++++++++++++++++++++++++++++++++++++*+-----------------------",
"---------------%%%%%%%%%%%%%%%%%%%%%%%%%%%%%%%%%%%%%%%%%%%%%%++++++++++++++++++++++++++++++++++++++++++;------------------------",
"----------------%-%%%%%%%%%%%%%%%%%%%%%%%%%%%%%%%%%%%%%%%%%%%%+++++++++++++++++++++++++++++++++++++++++-------------------------",
"-------------------%%%%%%%%%%%%%%%%%%%%%%%%%%%%%%%%%%%%%%%%%%%++++++++++++++++++++++++++++++++++++++++*-------------------------",
"--------------------%%%%%%%%%%%%%%%%%%%%%%%%%%%%%%%%%%%%%%%%%%++++++++++++++++++++++++++++++++++++++++--------------------------",
"--------------------%%%%%%%%%%%%%%%%%%%%%%%%%%%%%%%%%%%%%%%%%%%++++++++++++++++++++++++++++++++++++++---------------------------",
"---------------------%%%%%%%%%%%%%%%%%%%%%%%%%%%%%%%%%%%%%%%%%%%++++++++++++++++++++++++++++++++++++----------------------------",
"----------------------%%%%%%%%%%%%%%%%%%%%%%%%%%%%%%%%%%%%%%%%%%%+++++++++++++++++++++++++++++++++--------------------------->--",
"-----------------------%%%%%%%%%%%%%%%%%%%%%%%%%%%%%%%%%%%%%%%%%%%+++++++++++++++++++++++++++++++-------------------------------",
"------------------------,%%%%%%%%%%%%%%%%%%%%%%%%%%%%%%%%%%%%%%%%%%+++++++++++++++++++++++++++++--------------------------------",
"-------------------------%%%%%%%%%%%%%%%%%%%%%%%%%%%%%%%%%%%%%%%%%%%%%++++++++++++++++++++++++++--------------------------------",
"--------------------------'%%%%%%%%%%%%%%%%%%%%%%%%%%%%%%%%%%%%%%%%%%%%+++++++++++++++++++++++++--------------------------------",
"---------------------------%%%%%%%%%%%%%%%%%%%%%%%%%%%%%%%%%%%%%%%%%%%%%+++++++++++++++++++++++---------------------------------",
"----------------------------%%%%%%%%%%%%%%%%%%%%%%%%%%%%%%%%%%%%%%%%%%%%%%=++++++++++++++++++++---------------------------------",
"-----------------------------%%%%%%%%%%%%%%%%%%%%%%%%%%%%%%%%%%%%%%%%%%%%%%%%%*+++++++++++++++--------------------------------->",
"--------------------------------%%%%%%%%%%%%%%%%%%%%%%%%%%%%%%%%%%%%%%%%%%%%%%%%++++++++++++*---------------------------------->",
">--------------------------------%%%%%%%%%%%%%%%%%%%%%%%%%%%%%%%%%%%%%%%%%%%%%%%%%++++++++------------------------------------>)",
">---------------------------------%%%%%%%%%%%%%%%%%%%%%%%%%%%%%%%%%%%%%%%%%%%%%%%%%*+***---------------------------------------!",
"-----------------------------------%%%%%%%%%%%%%%%%%%%%%%%%%%%%%%%%%%%%%%%%%%%%%%%%%%%-------------------------------------->~!!",
"-----------------------------------%%%%%%%%%%%%%%%%%%%%%%%%%%%%%%%%%%%%%%%%%%%%%%%%%%-------------------------------------->!!!!",
"->->-->-----------------------------%%%%%%%%%%%%%%%%%%%%%%%%%%%%%%%%%%%%%%%%%%%%%%{-------------------------------------->~!!!!!",
"---->>>>-----------------------------%%%%%%%%%%%%%%%%%%%%%%%%%%%%%%%%%%%%%%%%%%%%%---------------------------------------!!!!!!!",
">>->>-->>>---------------------------%%%%%%%%%%%%%%%%%%%%%%%%%%%%%%%%%%%%%%%%%%%%---------------------------------------!!!!!!!!",
"->>>--->>--->--->---------------------%%%%%%%%%%%%%%%%%%%%%%%%%%%%%%%%%%%%%%%%%------------------------------------->>!!!!!!!!!!",
">>>>->->->--->>>>>--------------------%%%%%%%%%%%%%%%%%%%%%%%%%%%%%%%%%%%%%%%%------------------------------------->!!!!!!!!!!!!",
">>>>>-->>>>>>>>>>>---------------------%%%%%%%%%%%%%%%%%%%%%%%%%%%%%%%%%%%%{------------------------------------->]!!!!!!!!!!!!!",
">>>>->>>>>>>>>>>>>>>--------------------%%%%%%%%%%%%%%%%%%%%%%%%%%%%%%%%-------------------------------------->!!!!!!!!!!!!!!!!!",
">>>>>>>>>>>>>>>>>>>>->-------------------%%%%%%%%%%%%%%%%%%%%%%%%%%%%%------------------------------------->!!!!!!!!!!!!!!!!!!!!",
">>>>>>>>>>>>>>>>>>>>>>>>------------------%%%%%%%%%%%%%%%%%%%%%%%%%%%--------------------------------------!!!!!!!!!!!!!!!!!!!!!",
">>-->>>>>>>>>>>>>>>>>>>->-------------->>->%%%%%%%%%%%%%%%%%%%%------------------------>--------------->->!!!!!!!!!!!!!!!!!!!!!!",
">>-->>>-->>>>>>>>>>>>>>>----------------------,%%%%%%%%%%%%%,,>-->------------------------------------->>!!!!!!!!!!!!!!!!!!!!!!!",
">>-->>>>>>>>>>>>>>>>>>>>>>------------------->>-->>>%%%%%%%%------------>----------------------------->>!!!!!!!!!!!!!!!!!!!!!!!!",
">>>>>>>>>>>>>>>>>>>>>>>>>>>>----------------->>>>------->-------------------------------------->---->!!!!!!!!!!!!!!!!!!!!!!!!!!!",
"!!!>>>>>>>>>>>>>>>>>>>>>>>>---------------->>>^^^^^^^^^^^^>-->>>----------------------------->~>!!!!!!!!!!!!!!!!!!!!!!!!!!!!!!!!",
"!!!!!!!>>>>>>>>>>>>>>>>>>>>>>--------------->--^^^>------->>>>>------------------------->--->~!!!!!!!!!!!!!!!!!!!!!!!!!!!!!!!!!!",
"!!!!!!!!!!!!>>>>>>>>>>>>>>>>>>-->----------------->-------->>>>>----------------------->~!!!!!!!!!!!!!!!!!!!!!!!!!!!!!!!!!!!!!!!",
"!!!!!!!!!!!!!!!!!>>>>>>>>>>>>>->>--------->>----^^^^^^^^^^^>>>>>-->>------------------~!!!!!!!!!!!!!!!!!!!!!!!!!!!!!!!!!!!!!!!!!",
"!!!!!!!!!!!!!!!!!!!!~>>>>>>>>>>>>>>-^^^^^^^^^^^^^^^^^^^^^,-->>>>-->---------------->!!!!!!!!!!!!!!!!!!!!!!!!!!!!!!!!!!!!!!!!!!!!",
"!!!!!!!!!!!!!!!!!!!!!!!!!>>>>>>>>>>---^^^^^^^^^^^^^^---------->--->--------------->!!!!!!!!!!!!!!!!!!!!!!!!!!!!!!!!!!!!!!!!!!!!!",
"!!!!!!!!!!!!!!!!!!!!!!!!!!!!>>>>>>>>>-------^^^^^^^^^^^^^^^^^^^---->---->>---->>!!!!!!!!!!!!!!!!!!!!!!!!!!!!!!!!!!!!!!!!!!!!!!!!",
"!!!!!!!!!!!!!!!!!!!!!!!!!!!!!>>>>>>>>>->--^^^^^^^^^^^^^^^^^^^^^^^/;--->->>>-->>!!!!!!!!!!!!!!!!!!!!!!!!!!!!!!!!!!!!!!!!!!!!!!!!!",
"!!!!!!!!!!!!!!!!!!!!!!!!!!!!!>>>>>>>>>>>->^^^^^^^^^^^^^^^^^^^^^^^^^^^^^^>>>>>>!!!!!!!!!!!!!!!!!!!!!!!!!!!!!!!!!!!!!!!!!!!!!!!!!!",
"!!!!!!!!!!!!!!!!!!!!!!!!!!!!!!!>>>>>>>>>>>>>>>---^^^^^^^^^^^^^^^^^^^^^^^^^^!!!!!!!!!!!!!!!!!!!!!!!!!!!!!!!!!!!!!!!!!!!!!!!!!!!!!",
"!!!!!!!!!!!!!!!!!!!!!!!!!!!!!!!!!!!!!!!!!!!!!]-,;^^^^^^^^^^^^^^^^^^^^^^^^^!!!!!!!!!!!!!!!!!!!!!!!!!!!!!!!!!!!!!!!!!!!!!!!!!!!!!!",
"!!!!!!!!!!!!!!!!!!!!!!!!!!!!!!!!!!!!!!!!!!!!!!!]];^^^^^^^^^^^^^^^^^^^^^^!!!!!!!!!!!!!!!!!!!!!!!!!!!!!!!!!!!!!!!!!!!!!!!!!!!!!!!!",
"!!!!!!!!!!!!!!!!!!!!!!!!!!!!!!!!!!!!!!!!!!!!!!!!!!!(^^^^^^^^^^^^^^^^^^^)!!!!!!!!!!!!!!!!!!!!!!!!!!!!!!!!!!!!!!!!!!!!!!!!!!!!!!!!",
"!!!!!!!!!!!!!!!!!!!!!!!!!!!!!!!!!!!!!!!!!!!!!!!!!!!!!!^^^^^^^^^^^^^^^^!!!!!!!!!!!!!!!!!!!!!!!!!!!!!!!!!!!!!!!!!!!!!!!!!!!!!!!!!!",
"!!!!!!!!!!!!!!!!!!!!!!!!!!!!!!!!!!!!!!!!!!!!!!!!!!!!!!!!^^^^^^^^^!!!!!!!!!!!!!!!!!!!!!!!!!!!!!!!!!!!!!!!!!!!!!!!!!!!!!!!!!!!!!!!",
"!!!!!!!!!!!!!!!!!!!!!!!!!!!!!!!!!!!!!!!!!!!!!!!!!!!!!!!!!!!!!!!!!!!!!!!!!!!!!!!!!!!!!!!!!!!!!!!!!!!!!!!!!!!!!!!!!!!!!!!!!!!!!!!!",
"!!!!!!!!!!!!!!!!!!!!!!!!!!!!!!!!!!!!!!!!!!!!!!!!!!!!!!!!!!!!!!!!!!!!!!!!!!!!!!!!!!!!!!!!!!!!!!!!!!!!!!!!!!!!!!!!!!!!!!!!!!!!!!!!",
"!!!!!!!!!!!!!!!!!!!!!!!!!!!!!!!!!!!!!!!!!!!!!!!!!!!!!!!!!!!!!!!!!!!!!!!!!!!!!!!!!!!!!!!!!!!!!!!!!!!!!!!!!!!!!!!!!!!!!!!!!!!!!!!!"};
