/* XPM */
static char * play_button_xpm[] = {
"128 128 20 1",
" 	c #00FFFFFF",
".	c #3A4454",
"+	c #2D3749",
"@	c #4E5866",
"#	c #454F5E",
"$	c #565F6D",
"%	c #5271A3",
"&	c #5373A7",
"*	c #5B6472",
"=	c #A6CFF2",
"-	c #809ECA",
";	c #A2CDF2",
">	c #7995C4",
",	c #E4EEF7",
"'	c #CCE2F6",
")	c #C2DEF7",
"!	c #1070BF",
"~	c #0C6DBB",
"{	c #7FA5C8",
"]	c #6886B7",
"                                                                                                                                ",
"                                                                                                                                ",
"                                                                                                                                ",
"                                                                                                                                ",
"                                                                                                                                ",
"                                                                                                                                ",
"                                                                                                                                ",
"                                                                                                                                ",
"                                                                                                                                ",
"                                                                                                                                ",
"                                                                                                                                ",
"                                                                                                                                ",
"                                                                                                                                ",
"                                                                                                                                ",
"                                                                                                                                ",
"                                                                                                                                ",
"                                                                                                                                ",
"                                                                                                                                ",
"                                                                                                                                ",
"                                                                                                                                ",
"                                                                                                                                ",
"                                                                                                                                ",
"                                                                                                                                ",
"                                                                                                                                ",
"                                                                                                                                ",
"                                                                                                                                ",
"                                                                                                                                ",
"                                                                                                                                ",
"                                                                                                                                ",
"                                                                                                                                ",
"                                                                                                                                ",
"                                                                                                                                ",
"                                                                                                                                ",
"                                                                                                                                ",
"                                                                                                                                ",
"                                                                                                                                ",
"                                                                                                                                ",
"                                                                                                                                ",
"                         .++++++++++++++++++++++++++++++++++++++++++++++++++++++++++++++++++++++++++++@                         ",
"                       .++++++++++++++++++++++++++++++++++++++++++++++++++++++++++++++++++++++++++++++++.                       ",
"                    @++++++++++++++++++++++++++++++++++++++++++++++++++++++++++++++++++++++++++++++++++++++#                    ",
"                   ++++++++++++++++++++++++++++++++++++++++++++++++++++++++++++++++++++++++++++++++++++++++++                   ",
"                 $+++++++++%&&&&&&&&&&&&&&&&&&&&&&&&&&&&&&&&&&&&&&&&&&&&&&&&&&&&&&&&&&&&&&&&&&&&&&&&&+++++++++$                 ",
"                @+++++++%%%&&&&&&&&&&&&&&&&&&&&&&&&&&&&&&&&&&&&&&&&&&&&&&&&&&&&&&&&&&&&&&&&&&&&&&&&&&%%++++++++@                ",
"               $++++++%%&&&&&&&&&&&&&&&&&&&&&&&&&&&&&&&&&&&&&&&&&&&&&&&&&&&&&&&&&&&&&&&&&&&&&&&&&&&&&&&&&.++++++*               ",
"              *++++++%&&&&&==========================================================================&&&&%%++++++*              ",
"              +++++%%&&&--============================================================================;&&&%%%+++++              ",
"             $++++%%%==>================================================================================;&%%%%++++*             ",
"             ++++%%%======,,,,'''''''''''''''''''''''''''''''''''''''''''''''''''''''''''''''''''''=======;&%%%++++$            ",
"            +++++%%%===),,,,,,'''''''''''''''''''''''''''''''''''''''''''''''''''''''''''''''''''''''=====;-&%%+++++            ",
"            ++++%%%====,,,,,,,'''''''''''''''''''''''''''''''''''''''''''''''''''''''''''''''''''''''''=====>&%%++++            ",
"           *++++%%%==),,,,,,,,'''''''''''''''''''''''''!~~'''''''''''''''''''''''''''''''''''''''''''''======&%%++++*           ",
"           ++++%%%;=)),,,,,,,,;========;~~~~~~~~~~~!;=;~~~;==================================================-%%%++++           ",
"          *++++%%%==),,,,,,,,==========;~~~~~~~~~~~~==;~~~====================================================%%%++++*          ",
"          ++++%%%-=====================;~~~~~~~~~~~~==;~~~================================================={==-&&&++++          ",
"          ++++%%%=======================~~!;=;;;;~~~==;~~~;================================================{===&&&++++          ",
"          ++++%%%======================;~~~;===;;~~~==;~~~;;;~~~~~~~~~~~;=;~~~=====;~~~;==================={{==&&&++++          ",
"          ++++%%&=======================~~~;====;~~~=;;~~~;;;~~~~~~~~~~~==;!~~;=====~~~;==================={{{=&&&++++          ",
"          ++++%%&======================;~~~;====;~~~;;;~~~;=;!~!~~~~~~~~==;;~~~;==;~~~;===================={{{{&&&++++          ",
"          ++++%%&=======================~~~;;==;;~~~;;;~~~==;;;;;;;;;~~~==;;~~~;;;;~~~;===================={{{{&&&++++          ",
"          ++++%%&======================;~~~;;;;;;~~~==;~~~==;;;;==;;;~~~===;~~~;=;;~~~====================={{{{%&%++++          ",
"          ++++%%%======================;~~~~~~~~~~~~==;~~~====;=;;;;;~~~===;;~~~==~~~;====================={{{{%%%++++          ",
"          ++++%%%======================;~~~~~~~~~~~~==;~~~;===~~~~~~~~~~====;~~~;=~~~;====================={{{{%&%++++          ",
"          ++++%%%======================;~~~~~~~~~~~~==;~~~==;~~~~~~~~~~~=====!~~;=~~~;====================={{{{&&&++++          ",
"          ++++%%%======================;~~~;;===;;;;;=;~~~==;~~~~~~~~~~~=====;~~~~~~;====================={{{{{%&%++++          ",
"          ++++%%&======================;~~~;==========;~~~;=;~~~===;=~~~======~~~~~~;====================={{{{{%&&++++          ",
"          ++++%&&======================;~~~;==========;~~~==;~~~=====~~~=====;;~~~~~====================={{{{{{%&&++++          ",
"          ++++%%&======================;~~~;=========;;~~~==;~~~~~~~~~~~======;~~~~;====================={{{{{{&%&++++          ",
"          ++++%&&&=====================;~~~;==========;~~~;=;~~~~~~~~~~~======;!~~!;===================={{{{{{&&%&++++          ",
"          ++++%&&&-=====================~!~;==========;!~~;=;!~~~~~~~~~~======;;~~====================={{{{{{{&&%%++++          ",
"           ++++%&%%{{;========================================================;~~~;=================={{{{{{{{&&%%++++           ",
"           +++++%%%{{{{========================================================~~~;================={{{{{{{{{&&%+++++           ",
"            ++++%%&&{{{{{{=================================================;~~~~~;===============;{{{{{{{{{{&&&%++++            ",
"            +++++%%&{{{{{{{{{{{{{{{{{{{{{{{{{{{{{{{{{{{{{{{{{{{{{{{{{{{{{{{{~~~~~{{{{{{{{{{{{{{{{{{{{{{{{{{{&&%+++++            ",
"             +++++%&&&{{{{{{{{{{{{{{{{{{{{{{{{{{{{{{{{{{{{{{{{{{{{{{{{{{{{{{~~~~{{{{{{{{{{{{{{{{{{{{{{{{{{&&%%+++++             ",
"              ++++%&&&&]{{{{{{{{{{{{{{{{{{{{{{{{{{{{{{{{{{{{{{{{{{{{{{{{{{{{{{{{{{{{{{{{{{{{{{{{{{{{{{{{{&&&%+++++              ",
"              ++++++&%&&{{{{{{{{{{{{{{{{{{{{{{{{{{{{{{{{{{{{{{{{{{{{{{{{{{{{{{{{{{{{{{{{{{{{{{{{{{{{{{{{&&&%++++++              ",
"               ++++++%&&%&%{{{{{{{{{{{{{{{{{{{{{{{{{{{{{{{{{{{{{{{{{{{{{{{{{{{{{{{{{{{{{{{{{{{{{{{{{{&&&%&%++++++               ",
"                +++++++&&&&&%&&&&&&&%&&&%%%&&&%&&&&&&&&&&&&&%&&&&&&&&&%&&&&&%&&%&&&&&&&&&&&&&&&&&&%&&&&&%+++++++*               ",
"                 ++++++++%%&&&%&&&%&%&&&%%%%%%%%%&%&&&&&&&%%%%%&&&%&&&%&%&&&%%%&&&&&&&%&&&&&&&%%%&%&%&&++++++++                 ",
"                  +++++++++%&&%%&%%%&&%%%%%%%%%%%%%&%%%&&&&&%%%%%%%%%&%%%&&&%&%&&&&&&&&%%%%%%&&%%%&%+++++++++#                  ",
"                   +++++++++++++++++++++++++++++++++++++++++++++++++++++++++++++++++++++++++++++++++++++++++                    ",
"                     +++++++++++++++++++++++++++++++++++++++++++++++++++++++++++++++++++++++++++++++++++++.                     ",
"                       #++++++++++++++++++++++++++++++++++++++++++++++++++++++++++++++++++++++++++++++++                        ",
"                           +++++++++++++++++++++++++++++++++++++++++++++++++++++++++++++++++++++++++                            ",
"                                                                                                                                ",
"                                                                                                                                ",
"                                                                                                                                ",
"                                                                                                                                ",
"                                                                                                                                ",
"                                                                                                                                ",
"                                                                                                                                ",
"                                                                                                                                ",
"                                                                                                                                ",
"                                                                                                                                ",
"                                                                                                                                ",
"                                                                                                                                ",
"                                                                                                                                ",
"                                                                                                                                ",
"                                                                                                                                ",
"                                                                                                                                ",
"                                                                                                                                ",
"                                                                                                                                ",
"                                                                                                                                ",
"                                                                                                                                ",
"                                                                                                                                ",
"                                                                                                                                ",
"                                                                                                                                ",
"                                                                                                                                ",
"                                                                                                                                ",
"                                                                                                                                ",
"                                                                                                                                ",
"                                                                                                                                ",
"                                                                                                                                ",
"                                                                                                                                ",
"                                                                                                                                ",
"                                                                                                                                ",
"                                                                                                                                ",
"                                                                                                                                ",
"                                                                                                                                ",
"                                                                                                                                ",
"                                                                                                                                ",
"                                                                                                                                ",
"                                                                                                                                ",
"                                                                                                                                ",
"                                                                                                                                ",
"                                                                                                                                ",
"                                                                                                                                "};
