/* XPM */
static char * shot_2_xpm[] = {
"64 64 6 1",
" 	c #00FFFFFF",
".	c #99D9EA",
"+	c #000000",
"@	c #F5E49C",
"#	c #AA9E6C",
"$	c #766D4B",
"                                                                ",
"                                                                ",
"                                                                ",
"                                                                ",
"                                                                ",
"                                                                ",
"                                                                ",
"                                                                ",
"                                                                ",
"                                                                ",
"                                                                ",
"                                                                ",
"                                                                ",
"                                                                ",
"                                                                ",
"                                                                ",
"                                                                ",
"                                                                ",
"                                                                ",
"                                                                ",
"                                                                ",
"                                                                ",
"                                                                ",
"                                                                ",
"                                                                ",
"                                                                ",
"                                                                ",
"                                                                ",
"                                                                ",
"                                                                ",
"                                                                ",
"                                                                ",
"                                                                ",
"                                     ..       ..                ",
"                                    ..         ..               ",
"                                    .           .               ",
"                                       .     .                  ",
"                                        .   .                   ",
"                                                                ",
"                                          .                     ",
"                                                                ",
"                                        .   .                   ",
"                                       .     .                  ",
"                                    .           .               ",
"                                    ..         ..               ",
"                                     ..       ..+++             ",
"                                               ++@++            ",
"                                              ++@@#+            ",
"                                            ++++@@#+            ",
"                                           ++@@+@@#+            ",
"                                           +@@@+@@#+            ",
"                                           +@@@++@##+   ++++    ",
"                                           ++@@@+###+ +++@@+    ",
"                                            +@@@+###+ ++@@@+    ",
"                                            +@@@+####++@@@@++   ",
"                                            ++@@++####+@@@@@+   ",
"                                             +@@#+####+@@@@@+   ",
"                                         +++++@@#+###+@@@@@+    ",
"                                        ++@@@+@@#+##$+@@@@@+    ",
"                                       ++@@@@+@@####$+@@@@@+    ",
"                                      +++@@@@+++####$+@@@@@+    ",
"                                     +@@+@@@@@++####$+@@@@@+    ",
"                                     +@@+@@@@@@@+###$+@@@@@+    ",
"                                     +@@++@@@@@@++#$+@@@@@+     "};
