/* XPM */
static char * shot_0_xpm[] = {
"64 64 7 1",
" 	c #00FFFFFF",
".	c #99D9EA",
"+	c #000000",
"@	c #F5E49C",
"#	c #AA9E6C",
"$	c #766D4B",
"%	c #524B34",
"                                                                ",
"                                                                ",
"                                                                ",
"                                                                ",
"                                                                ",
"                                                                ",
"                                                                ",
"                                                                ",
"                                                                ",
"                                                                ",
"                                                                ",
"                                                                ",
"                                                                ",
"                                                                ",
"                                                                ",
"                                                                ",
"                                                                ",
"                                                                ",
"                                                                ",
"                                                                ",
"                                                                ",
"                                                                ",
"                                                                ",
"                                                                ",
"                                                                ",
"                                                                ",
"                                                                ",
"                                                                ",
"                                                                ",
"                                                                ",
"                                                                ",
"                                                                ",
"                                                                ",
"                                                                ",
"                                                                ",
"                                                                ",
"                                         ...                    ",
"                                        .   .                   ",
"                                       .  .  .                  ",
"                                       . . . .                  ",
"                                       .  .  .                  ",
"                                        .   .                   ",
"                                         ...   +++              ",
"                                              ++@++             ",
"                                             ++@@#+             ",
"                                           ++++@@#+             ",
"                                          ++@@+@@#+             ",
"                                          +@@@+@@#+             ",
"                                          +@@@++@##+   ++++     ",
"                                          ++@@@+###+ +++@@+     ",
"                                           +@@@+###+ ++@@@+     ",
"                                           +@@@+####++@@@@++    ",
"                                           ++@@++####+@@@@@+    ",
"                                            +@@#+####+@@@@@+    ",
"                                        +++++@@#+###+@@@@@+     ",
"                                       ++@@@+@@#+##$+@@@@@+     ",
"                                      ++@@@@+@@####$+@@@@@+     ",
"                                     +++@@@@+++####$+@@@@@+     ",
"                                    +@@+@@@@@++####$+@@@@@+     ",
"                                    +@@+@@@@@@@+###$+@@@@@+     ",
"                                    +@@++@@@@@@++#$+@@@@@+      ",
"                                    +@@@++@@@@@@+$$+@@@@@+      ",
"                                     +@@@+@@@@@@+$$+@@@@@+      ",
"                                      +@@@+@@@@@+$%+@@@@@+      "};
