/* XPM */
static char * BRICK_2B_xpm[] = {
"64 64 25 1",
" 	c #3C2C24",
".	c #4D352B",
"+	c #5B402F",
"@	c #772D27",
"#	c #652422",
"$	c #5A1F1C",
"%	c #88403C",
"&	c #4E1818",
"*	c #984637",
"=	c #AA5655",
"-	c #894443",
";	c #944643",
">	c #7F332D",
",	c #652826",
"'	c #2A0909",
")	c #A54E44",
"!	c #3C1213",
"~	c #732C28",
"{	c #5F2420",
"]	c #000000",
"^	c #4D2626",
"/	c #39130D",
"(	c #431B17",
"_	c #51221B",
":	c #1E0707",
"      ..++..+.+..... ..++.+....    . ..+++++.+.     . .+++.+....",
"@@@@@#$#.++++...$%%@#$& +*=-;;@@@@@@@#$$$$#>>;;>;>>@#$&.+*=-;;@@",
",###,,#$@@%%%@@%%,##$#$'.),####@@@,####&##,####@>###$#$'.),###@,",
"###,,#####,###@,,####$#!.>####,,,,#######,###,@######$#! >###@,#",
"#,,,###&#####@,########'.>###>>#,########@##>>#########' >##>##,",
",,#####&####>#########$' >#,@##,#,###$###@#@##########$'.>#,>#,#",
"######&####,>#,#####~&!'.>#@,#,#,,##$#####@,########~&!' >#@###,",
"###$#$####@,#,#,####&&!! >@####,###$#$##@@,,#,#,####&&!!.>@###,#",
"###&######@,,#,####~&&!' {>#######$#$####,#,,#,####~&&!' {>#####",
"##&&######@,#,,###~&$&!! {#########$#&$#,#,,#,,###~&$&!!.{######",
"#~&$#$####,#####$#&$#$&!.&#######~&$&]]>#,######$#&$#$&!.&######",
"~&$#$##########$#$$###&! &&#####~&$#!!!*,######$#$$###&!.!&#####",
"$#$##########$#$#######'.&$###~&&$###>*######$#$#######'.&$###~&",
"#######$#$############$'.$####&&&&$######$############$'.$##~&&&",
"##&&$##&#$&&&#####&&##&'.$&&#$!!!!&&##$&#$&&&#####&&##&].$&&&&&$",
"!!!!'!']]''''!'!!!!!!''.+ '''''!'!!!!''']]'''!'!!!!!!'].+]'''!'!",
"+.    . .    .. ..  . .+++ .  . .. .      . .. .    .++++ . . .+",
"@@#$&++.%,@@,,,&! . #>,>,**>*>>>{&&&$$.++*>>>>&!&&$$$&&&###,@@@@",
",#,#$'+*,##>,#,#,!^&>,####,####@>#&$$#'.%,#####&!#&$##$&######@,",
"#####! >##>,#,#,,#>*#########,@####$#$'+>##@###$&&]!>$#$#####@,#",
",,,#&'.>#>##,###############>>######$$'.>#@#####&!!]*#$#####>##,",
",###&! >###############&###@#######$#$! >@,####$#$!>$##$####>#,,",
"#,#&#! &######$########$!#@,########$&'.*,#,####$&#############,",
"##$##! !&$#$#$####$###&]]>,########~&&! >#,######&#$##########,#",
"#####! '!&&#!!$#$$#$##$!!>,##,#,###~&#! @,,#####$$&#############",
"####$! &$#$!]]~&$######>*###,,,####&$&!.########$##$############",
"###$$! !#$$!]!*#&###########,,#####&&#! &######$#########&######",
"##&&&! /'!']!>#$#$##~######,,#,####&#&!.&##>####$###~~$&#&&#####",
"&&$#$' '/(//')#####~$#####,#,##$##&$#$!.>,##########$#$###$$#$#&",
"&##$$'.'(/(/('>###~$#$$##$####&##$&#$#'.$#############$###$#$#$$",
"#&$#&' //(/(_!~##~&&$$!##&$#&&###$&$$&'.&$#&&&######$####$#$$$&&",
"!!!'' . _/_///'!!!!!'!'']''!'!!!!!!''] +.'!'!!!!!!!'']']]''''!'!",
"      ..  .. . . ..... .    .....  . . +++++.+.    . .  +.+.....",
"%%@,##@#@@@+++.+..$%%@#$& . =-**@@@@@#$#>>>,@@@@@@@#$& +..=)>>>>",
"@@,####&##,%%@@%%%%,##$#$' ),###@,##,,#$######~,###,#$'.+*,###@@",
",,#######,,###@,,,,####$#!.>###@,##,,########~,###,###!+.%###,,,",
",#######,#,##@,#,########' >##>##,,,###&####~###,,,,#&'..%##>>##",
"#,###$######>##,########$' >#,>#,#,########>~~,,,,###&!. @#@##,,",
",,##$######,>#,#######~&!' >#@###,####&###>$$$##,#,#&#!..@@,#,##",
"###$#$#####,#,#,######&&!! >@###,##$#$##>~$#$#$,###$##!. %,###,,",
"##$#$######,,#,######~&&!' {>######&###,$$#$#$########! $%,#####",
"###$#######,#,,##$##~&$&!!.{######&&##,###$##########$!.%,######",
"#~&$###&########$$$#&$#$&! &#####~&$#$###&#$########$$! %#######",
"~&$############$#$#$$###&!.&&####&$#$###$##########&&&!.@#######",
"&$###########$$#$#$######' &$###&#$######&$$#$#~&&&$#$' #$###~&&",
"&&$######$#####$########$'.$##~&&########$$#$#$&$&##$$' $#$##&&&",
"!!&&##$&#$&&&#######&&##&'.$&&&&$#&&$##&#$#$$$&#&#&$#&' &$##$!!!",
"'!!!!''']]]''']''!]]'!!'' +.'''!!!!!'!'']''''!'!!!!!''  ''!'''!!",
".     . ..  . .... .  . ..++..+.+..... ..........    . . +++++.+",
"@@@@@@#$&.. =))%>>{{&   *%%%>>>>$ {{&&&$$+++....... .%>>$&'*;,@@",
"@,,###,#$' *@@@##@>##&>*{{{#,##$!@>##&$#&'+.=*%%>%%>%#,,#$##,###",
",####,###!.@#@#,@####{{$#$#####!)#######&'.*##>,#,,############@",
"###,,,,#&' #@#>>########$$###$>!@######~&'+>#>##,########&####>#",
"##,,,###&! @#@#########$#$&##@$',######&!!.>#############&###,>#",
"###,#,#&#! #@,########$#$&###$!)#,####~!&'.&#################@##",
"##,###$##! @,##########~##&$##!>######&&$!.!&$#$####$#######@###",
"#########! @,##,#,#######$#&#$!>#####$###! &!&&#$#$$#$######>###",
"########$!.@##,,,#####~#$$$&#!'@####~####!.&$##&&&$#############",
"#######$$! @##,,######~$&$$#!::,###&&$$#&! $######&#############",
"######&&&!.@#,,#,#####$&###$'::'#$&&$###&! $#####$#$##~#####&###",
"#~~&&&$#$'.@,,#,#####$&#&##!),#!#####$##$' &#$#######~$####&$$#$",
"$&&$&##$$'+#,#,##$###&#$#!!;,###!$##$####! &$#$#####~$#$###$$#$#",
"&&#&#&$#&'.$####&###$&$!''@$####&!#######' &&$#$###~&&$$###$#$$$",
"'!!!!!!''.+.'!'!!'!''']''']''!'!!!!:!!'']   '''!'!!!!!'!'']''''!"};
